<svg width="22" height="20" viewBox="0 0 22 20" fill="none" xmlns="http://www.w3.org/2000/svg">
<circle cx="10.9124" cy="9.91236" r="7.86951" stroke="#2174A6" stroke-width="1.21069"/>
<path d="M3.97793 2.25C3.15502 3.08019 2.4666 4.04186 1.94402 5.10154C0.990856 7.03437 0.632246 9.20644 0.91354 11.3431C1.19483 13.4797 2.1034 15.485 3.52434 17.1052C3.93528 17.5738 4.38374 18.0041 4.864 18.3926" stroke="#2174A6" stroke-width="1.21069" stroke-linecap="round"/>
<path d="M17.8502 2.25C18.6731 3.08019 19.3615 4.04186 19.8841 5.10154C20.8373 7.03437 21.1959 9.20644 20.9146 11.3431C20.6333 13.4797 19.7247 15.485 18.3038 17.1052C17.8928 17.5738 17.4444 18.0041 16.9641 18.3926" stroke="#2174A6" stroke-width="1.21069" stroke-linecap="round"/>
<mask id="path-4-outside-1_1030_2788" maskUnits="userSpaceOnUse" x="3.85938" y="6.63281" width="13" height="7" fill="black">
<rect fill="white" x="3.85938" y="6.63281" width="13" height="7"/>
<path d="M7.626 11.3165H5.83676L5.4663 12.6328H4.9382L6.59344 6.98133H6.86143L8.52456 12.6328H8.0004L7.626 11.3165ZM5.9747 10.8317H7.492L6.74714 8.2267L6.73138 8.01783L6.71562 8.2267L5.9747 10.8317ZM12.4302 11.2456C12.4302 11.4374 12.3934 11.6173 12.3198 11.7855C12.2489 11.9536 12.1503 12.1008 12.0242 12.2269C11.8981 12.353 11.7497 12.4528 11.5789 12.5264C11.4107 12.5973 11.2308 12.6328 11.039 12.6328H9.24972V6.98133H11.039C11.2308 6.98133 11.4107 7.01811 11.5789 7.09168C11.7497 7.16262 11.8981 7.26114 12.0242 7.38726C12.1503 7.51337 12.2489 7.66182 12.3198 7.8326C12.3934 8.00075 12.4302 8.18073 12.4302 8.37252V8.4277C12.4302 8.5617 12.4118 8.69044 12.375 8.81392C12.3408 8.93478 12.2909 9.04776 12.2252 9.15285C12.1595 9.25795 12.082 9.35385 11.9927 9.44055C11.9034 9.52463 11.8035 9.59557 11.6932 9.65337C11.8035 9.71117 11.9034 9.78342 11.9927 9.87013C12.082 9.9542 12.1595 10.0501 12.2252 10.1578C12.2909 10.2629 12.3408 10.3772 12.375 10.5007C12.4118 10.6216 12.4302 10.749 12.4302 10.883V11.2456ZM11.9218 10.8002C11.9218 10.6741 11.8981 10.5572 11.8508 10.4495C11.8035 10.3391 11.7378 10.2432 11.6538 10.1618C11.5723 10.0803 11.4764 10.0159 11.3661 9.96865C11.2583 9.92136 11.1414 9.89772 11.0153 9.89772H9.75812V12.1481H11.0153C11.1414 12.1481 11.2583 12.1244 11.3661 12.0771C11.4764 12.0298 11.5723 11.9655 11.6538 11.884C11.7378 11.8026 11.8035 11.708 11.8508 11.6003C11.8981 11.4899 11.9218 11.3717 11.9218 11.2456V10.8002ZM11.9218 8.37252C11.9218 8.24641 11.8981 8.12949 11.8508 8.02177C11.8035 7.91142 11.7378 7.81552 11.6538 7.73407C11.5723 7.65 11.4764 7.58431 11.3661 7.53702C11.2583 7.48973 11.1414 7.46608 11.0153 7.46608H9.75812V9.41296H11.0153C11.1414 9.41296 11.2583 9.38932 11.3661 9.34203C11.4764 9.29473 11.5723 9.23036 11.6538 9.14891C11.7378 9.06484 11.8035 8.96894 11.8508 8.86122C11.8981 8.75087 11.9218 8.63263 11.9218 8.50652V8.37252ZM16.5013 11.3244C16.5013 11.5162 16.4619 11.6962 16.383 11.8643C16.3068 12.0325 16.2031 12.1796 16.0717 12.3057C15.943 12.4318 15.7919 12.5317 15.6185 12.6052C15.4477 12.6762 15.2664 12.7116 15.0746 12.7116H14.6687C14.4769 12.7116 14.2943 12.6762 14.1209 12.6052C13.9501 12.5317 13.799 12.4318 13.6676 12.3057C13.5389 12.1796 13.4351 12.0325 13.3563 11.8643C13.2801 11.6962 13.242 11.5162 13.242 11.3244V11.0997L13.7504 11.017V11.3244C13.7504 11.4505 13.7754 11.5687 13.8253 11.6791C13.8778 11.7868 13.9475 11.8827 14.0342 11.9668C14.1209 12.0482 14.2207 12.1126 14.3337 12.1599C14.4493 12.2072 14.5702 12.2308 14.6963 12.2308H15.051C15.1771 12.2308 15.2966 12.2072 15.4096 12.1599C15.5226 12.1126 15.6224 12.0482 15.7091 11.9668C15.7958 11.8827 15.8641 11.7868 15.9141 11.6791C15.9666 11.5687 15.9929 11.4505 15.9929 11.3244V11.1549C15.9929 10.9605 15.9548 10.7989 15.8786 10.6702C15.8024 10.5414 15.7012 10.4324 15.5751 10.3431C15.449 10.2511 15.3058 10.1736 15.1455 10.1105C14.9879 10.0475 14.825 9.98442 14.6569 9.92136C14.4887 9.8583 14.3245 9.78868 14.1642 9.71249C14.0066 9.63629 13.8647 9.54171 13.7386 9.42873C13.6125 9.31312 13.5113 9.17256 13.4351 9.00704C13.3589 8.84151 13.3208 8.63789 13.3208 8.39617V8.28976C13.3208 8.09796 13.3563 7.91799 13.4272 7.74984C13.5008 7.58168 13.6007 7.43455 13.7268 7.30844C13.8529 7.18232 14 7.0838 14.1682 7.01286C14.3389 6.93929 14.5202 6.90251 14.712 6.90251H15.0746C15.2664 6.90251 15.4464 6.93929 15.6145 7.01286C15.7827 7.0838 15.9298 7.18232 16.0559 7.30844C16.182 7.43455 16.2806 7.58168 16.3515 7.74984C16.4251 7.91799 16.4619 8.09796 16.4619 8.28976V8.43558L15.9535 8.51834V8.28976C15.9535 8.16365 15.9298 8.04673 15.8825 7.93901C15.8352 7.82866 15.7709 7.73276 15.6894 7.65131C15.608 7.56986 15.5121 7.50549 15.4017 7.4582C15.294 7.4109 15.1771 7.38726 15.051 7.38726H14.7357C14.6096 7.38726 14.4913 7.4109 14.381 7.4582C14.2733 7.50549 14.1774 7.56986 14.0933 7.65131C14.0118 7.73276 13.9475 7.82866 13.9002 7.93901C13.8529 8.04673 13.8292 8.16365 13.8292 8.28976V8.39617C13.8292 8.57746 13.8673 8.72985 13.9435 8.85333C14.0197 8.97682 14.1209 9.08323 14.247 9.17256C14.3731 9.25926 14.515 9.33546 14.6726 9.40114C14.8329 9.4642 14.9971 9.52988 15.1653 9.59819C15.3334 9.66388 15.4963 9.73745 15.6539 9.81889C15.8142 9.89772 15.9574 9.99624 16.0835 10.1145C16.2096 10.2301 16.3108 10.372 16.387 10.5401C16.4632 10.7083 16.5013 10.9132 16.5013 11.1549V11.3244Z"/>
</mask>
<path d="M7.626 11.3165H5.83676L5.4663 12.6328H4.9382L6.59344 6.98133H6.86143L8.52456 12.6328H8.0004L7.626 11.3165ZM5.9747 10.8317H7.492L6.74714 8.2267L6.73138 8.01783L6.71562 8.2267L5.9747 10.8317ZM12.4302 11.2456C12.4302 11.4374 12.3934 11.6173 12.3198 11.7855C12.2489 11.9536 12.1503 12.1008 12.0242 12.2269C11.8981 12.353 11.7497 12.4528 11.5789 12.5264C11.4107 12.5973 11.2308 12.6328 11.039 12.6328H9.24972V6.98133H11.039C11.2308 6.98133 11.4107 7.01811 11.5789 7.09168C11.7497 7.16262 11.8981 7.26114 12.0242 7.38726C12.1503 7.51337 12.2489 7.66182 12.3198 7.8326C12.3934 8.00075 12.4302 8.18073 12.4302 8.37252V8.4277C12.4302 8.5617 12.4118 8.69044 12.375 8.81392C12.3408 8.93478 12.2909 9.04776 12.2252 9.15285C12.1595 9.25795 12.082 9.35385 11.9927 9.44055C11.9034 9.52463 11.8035 9.59557 11.6932 9.65337C11.8035 9.71117 11.9034 9.78342 11.9927 9.87013C12.082 9.9542 12.1595 10.0501 12.2252 10.1578C12.2909 10.2629 12.3408 10.3772 12.375 10.5007C12.4118 10.6216 12.4302 10.749 12.4302 10.883V11.2456ZM11.9218 10.8002C11.9218 10.6741 11.8981 10.5572 11.8508 10.4495C11.8035 10.3391 11.7378 10.2432 11.6538 10.1618C11.5723 10.0803 11.4764 10.0159 11.3661 9.96865C11.2583 9.92136 11.1414 9.89772 11.0153 9.89772H9.75812V12.1481H11.0153C11.1414 12.1481 11.2583 12.1244 11.3661 12.0771C11.4764 12.0298 11.5723 11.9655 11.6538 11.884C11.7378 11.8026 11.8035 11.708 11.8508 11.6003C11.8981 11.4899 11.9218 11.3717 11.9218 11.2456V10.8002ZM11.9218 8.37252C11.9218 8.24641 11.8981 8.12949 11.8508 8.02177C11.8035 7.91142 11.7378 7.81552 11.6538 7.73407C11.5723 7.65 11.4764 7.58431 11.3661 7.53702C11.2583 7.48973 11.1414 7.46608 11.0153 7.46608H9.75812V9.41296H11.0153C11.1414 9.41296 11.2583 9.38932 11.3661 9.34203C11.4764 9.29473 11.5723 9.23036 11.6538 9.14891C11.7378 9.06484 11.8035 8.96894 11.8508 8.86122C11.8981 8.75087 11.9218 8.63263 11.9218 8.50652V8.37252ZM16.5013 11.3244C16.5013 11.5162 16.4619 11.6962 16.383 11.8643C16.3068 12.0325 16.2031 12.1796 16.0717 12.3057C15.943 12.4318 15.7919 12.5317 15.6185 12.6052C15.4477 12.6762 15.2664 12.7116 15.0746 12.7116H14.6687C14.4769 12.7116 14.2943 12.6762 14.1209 12.6052C13.9501 12.5317 13.799 12.4318 13.6676 12.3057C13.5389 12.1796 13.4351 12.0325 13.3563 11.8643C13.2801 11.6962 13.242 11.5162 13.242 11.3244V11.0997L13.7504 11.017V11.3244C13.7504 11.4505 13.7754 11.5687 13.8253 11.6791C13.8778 11.7868 13.9475 11.8827 14.0342 11.9668C14.1209 12.0482 14.2207 12.1126 14.3337 12.1599C14.4493 12.2072 14.5702 12.2308 14.6963 12.2308H15.051C15.1771 12.2308 15.2966 12.2072 15.4096 12.1599C15.5226 12.1126 15.6224 12.0482 15.7091 11.9668C15.7958 11.8827 15.8641 11.7868 15.9141 11.6791C15.9666 11.5687 15.9929 11.4505 15.9929 11.3244V11.1549C15.9929 10.9605 15.9548 10.7989 15.8786 10.6702C15.8024 10.5414 15.7012 10.4324 15.5751 10.3431C15.449 10.2511 15.3058 10.1736 15.1455 10.1105C14.9879 10.0475 14.825 9.98442 14.6569 9.92136C14.4887 9.8583 14.3245 9.78868 14.1642 9.71249C14.0066 9.63629 13.8647 9.54171 13.7386 9.42873C13.6125 9.31312 13.5113 9.17256 13.4351 9.00704C13.3589 8.84151 13.3208 8.63789 13.3208 8.39617V8.28976C13.3208 8.09796 13.3563 7.91799 13.4272 7.74984C13.5008 7.58168 13.6007 7.43455 13.7268 7.30844C13.8529 7.18232 14 7.0838 14.1682 7.01286C14.3389 6.93929 14.5202 6.90251 14.712 6.90251H15.0746C15.2664 6.90251 15.4464 6.93929 15.6145 7.01286C15.7827 7.0838 15.9298 7.18232 16.0559 7.30844C16.182 7.43455 16.2806 7.58168 16.3515 7.74984C16.4251 7.91799 16.4619 8.09796 16.4619 8.28976V8.43558L15.9535 8.51834V8.28976C15.9535 8.16365 15.9298 8.04673 15.8825 7.93901C15.8352 7.82866 15.7709 7.73276 15.6894 7.65131C15.608 7.56986 15.5121 7.50549 15.4017 7.4582C15.294 7.4109 15.1771 7.38726 15.051 7.38726H14.7357C14.6096 7.38726 14.4913 7.4109 14.381 7.4582C14.2733 7.50549 14.1774 7.56986 14.0933 7.65131C14.0118 7.73276 13.9475 7.82866 13.9002 7.93901C13.8529 8.04673 13.8292 8.16365 13.8292 8.28976V8.39617C13.8292 8.57746 13.8673 8.72985 13.9435 8.85333C14.0197 8.97682 14.1209 9.08323 14.247 9.17256C14.3731 9.25926 14.515 9.33546 14.6726 9.40114C14.8329 9.4642 14.9971 9.52988 15.1653 9.59819C15.3334 9.66388 15.4963 9.73745 15.6539 9.81889C15.8142 9.89772 15.9574 9.99624 16.0835 10.1145C16.2096 10.2301 16.3108 10.372 16.387 10.5401C16.4632 10.7083 16.5013 10.9132 16.5013 11.1549V11.3244Z" fill="#2174A6"/>
<path d="M7.626 11.3165L7.8589 11.2503L7.80887 11.0744H7.626V11.3165ZM5.83676 11.3165V11.0744H5.65336L5.60367 11.2509L5.83676 11.3165ZM5.4663 12.6328V12.875H5.6497L5.69938 12.6984L5.4663 12.6328ZM4.9382 12.6328L4.70582 12.5648L4.61497 12.875H4.9382V12.6328ZM6.59344 6.98133V6.73919H6.41205L6.36107 6.91327L6.59344 6.98133ZM6.86143 6.98133L7.09372 6.91297L7.04258 6.73919H6.86143V6.98133ZM8.52456 12.6328V12.875H8.84823L8.75685 12.5645L8.52456 12.6328ZM8.0004 12.6328L7.7675 12.6991L7.81753 12.875H8.0004V12.6328ZM5.9747 10.8317L5.74179 10.7655L5.65408 11.0739H5.9747V10.8317ZM7.492 10.8317V11.0739H7.81308L7.72481 10.7652L7.492 10.8317ZM6.74714 8.2267L6.50569 8.24493L6.50755 8.26954L6.51433 8.29327L6.74714 8.2267ZM6.73138 8.01783L6.97283 7.99961H6.48993L6.73138 8.01783ZM6.71562 8.2267L6.94852 8.29295L6.95522 8.26937L6.95707 8.24493L6.71562 8.2267ZM7.626 11.0744H5.83676V11.5586H7.626V11.0744ZM5.60367 11.2509L5.23321 12.5672L5.69938 12.6984L6.06984 11.3821L5.60367 11.2509ZM5.4663 12.3907H4.9382V12.875H5.4663V12.3907ZM5.17057 12.7009L6.82582 7.04939L6.36107 6.91327L4.70582 12.5648L5.17057 12.7009ZM6.59344 7.22347H6.86143V6.73919H6.59344V7.22347ZM6.62915 7.04969L8.29227 12.7012L8.75685 12.5645L7.09372 6.91297L6.62915 7.04969ZM8.52456 12.3907H8.0004V12.875H8.52456V12.3907ZM8.2333 12.5666L7.8589 11.2503L7.3931 11.3827L7.7675 12.6991L8.2333 12.5666ZM5.9747 11.0739H7.492V10.5896H5.9747V11.0739ZM7.72481 10.7652L6.97995 8.16014L6.51433 8.29327L7.2592 10.8983L7.72481 10.7652ZM6.9886 8.20848L6.97283 7.99961L6.48993 8.03605L6.50569 8.24493L6.9886 8.20848ZM6.48993 7.99961L6.47416 8.20848L6.95707 8.24493L6.97283 8.03605L6.48993 7.99961ZM6.48271 8.16046L5.74179 10.7655L6.2076 10.898L6.94852 8.29295L6.48271 8.16046ZM12.3198 11.7855L12.0979 11.6884L12.0967 11.6914L12.3198 11.7855ZM11.5789 12.5264L11.673 12.7495L11.6747 12.7488L11.5789 12.5264ZM9.24972 12.6328H9.00758V12.875H9.24972V12.6328ZM9.24972 6.98133V6.73919H9.00758V6.98133H9.24972ZM11.5789 7.09168L11.4818 7.31355L11.486 7.31529L11.5789 7.09168ZM12.3198 7.8326L12.0962 7.9255L12.098 7.92965L12.3198 7.8326ZM12.375 8.81392L12.1429 8.74479L12.142 8.74807L12.375 8.81392ZM11.9927 9.44055L12.1587 9.6169L12.1613 9.61431L11.9927 9.44055ZM11.6932 9.65337L11.5808 9.43888L11.1713 9.65337L11.5808 9.86786L11.6932 9.65337ZM11.9927 9.87013L11.824 10.0439L11.8267 10.0465L11.9927 9.87013ZM12.2252 10.1578L12.0185 10.2839L12.0199 10.2862L12.2252 10.1578ZM12.375 10.5007L12.1415 10.5653L12.1433 10.5712L12.375 10.5007ZM11.8508 10.4495L11.6283 10.5449L11.6291 10.5468L11.8508 10.4495ZM11.6538 10.1618L11.4825 10.333L11.4853 10.3357L11.6538 10.1618ZM11.3661 9.96865L11.2687 10.1904L11.2707 10.1912L11.3661 9.96865ZM9.75812 9.89772V9.65558H9.51598V9.89772H9.75812ZM9.75812 12.1481H9.51598V12.3902H9.75812V12.1481ZM11.3661 12.0771L11.2707 11.8546L11.2687 11.8554L11.3661 12.0771ZM11.6538 11.884L11.4853 11.7101L11.4825 11.7128L11.6538 11.884ZM11.8508 11.6003L12.0725 11.6976L12.0734 11.6956L11.8508 11.6003ZM11.8508 8.02177L11.6283 8.11716L11.6291 8.11911L11.8508 8.02177ZM11.6538 7.73407L11.4798 7.90264L11.4853 7.90799L11.6538 7.73407ZM11.3661 7.53702L11.2687 7.75874L11.2707 7.75958L11.3661 7.53702ZM9.75812 7.46608V7.22394H9.51598V7.46608H9.75812ZM9.75812 9.41296H9.51598V9.6551H9.75812V9.41296ZM11.3661 9.34203L11.2707 9.11946L11.2687 9.12031L11.3661 9.34203ZM11.8508 8.86122L12.0725 8.95856L12.0734 8.9566L11.8508 8.86122ZM12.188 11.2456C12.188 11.4055 12.1575 11.5523 12.098 11.6884L12.5416 11.8825C12.6292 11.6824 12.6723 11.4692 12.6723 11.2456H12.188ZM12.0967 11.6914C12.0376 11.8314 11.9565 11.9522 11.853 12.0557L12.1954 12.3981C12.3442 12.2494 12.4601 12.0759 12.5429 11.8796L12.0967 11.6914ZM11.853 12.0557C11.7495 12.1592 11.6269 12.2421 11.4831 12.304L11.6747 12.7488C11.8724 12.6636 12.0467 12.5468 12.1954 12.3981L11.853 12.0557ZM11.4848 12.3033C11.3479 12.361 11.2001 12.3907 11.039 12.3907V12.875C11.2614 12.875 11.4736 12.8336 11.673 12.7495L11.4848 12.3033ZM11.039 12.3907H9.24972V12.875H11.039V12.3907ZM9.49186 12.6328V6.98133H9.00758V12.6328H9.49186ZM9.24972 7.22347H11.039V6.73919H9.24972V7.22347ZM11.039 7.22347C11.1989 7.22347 11.3457 7.25394 11.4818 7.31352L11.6759 6.86984C11.4758 6.78228 11.2626 6.73919 11.039 6.73919V7.22347ZM11.486 7.31529C11.6286 7.37452 11.7501 7.45562 11.853 7.55848L12.1954 7.21604C12.0461 7.06667 11.8707 6.95071 11.6718 6.86806L11.486 7.31529ZM11.853 7.55848C11.9559 7.66134 12.037 7.78289 12.0962 7.92548L12.5434 7.73971C12.4608 7.54074 12.3448 7.36541 12.1954 7.21604L11.853 7.55848ZM12.098 7.92965C12.1575 8.06582 12.188 8.2126 12.188 8.37252H12.6723C12.6723 8.14886 12.6292 7.93568 12.5416 7.73554L12.098 7.92965ZM12.188 8.37252V8.4277H12.6723V8.37252H12.188ZM12.188 8.4277C12.188 8.53923 12.1728 8.64463 12.1429 8.7448L12.607 8.88305C12.6508 8.73624 12.6723 8.58416 12.6723 8.4277H12.188ZM12.142 8.74807C12.114 8.8472 12.0733 8.9391 12.0199 9.02452L12.4306 9.28119C12.5085 9.15642 12.5677 9.02237 12.608 8.87977L12.142 8.74807ZM12.0199 9.02452C11.9646 9.11298 11.8994 9.19364 11.8241 9.2668L12.1613 9.61431C12.2646 9.51406 12.3545 9.40292 12.4306 9.28119L12.0199 9.02452ZM11.8267 9.26423C11.7537 9.33297 11.672 9.39114 11.5808 9.43888L11.8055 9.86786C11.9351 9.8 12.053 9.71629 12.1587 9.61688L11.8267 9.26423ZM11.5808 9.86786C11.6706 9.91487 11.7514 9.9734 11.8241 10.0439L12.1613 9.69637C12.0553 9.59344 11.9365 9.50747 11.8055 9.43888L11.5808 9.86786ZM11.8267 10.0465C11.8998 10.1153 11.9638 10.1941 12.0185 10.2839L12.432 10.0318C12.3553 9.90607 12.2642 9.79315 12.1587 9.6938L11.8267 10.0465ZM12.0199 10.2862C12.0728 10.3708 12.1135 10.4635 12.1416 10.5652L12.6084 10.4361C12.5682 10.2909 12.509 10.155 12.4306 10.0295L12.0199 10.2862ZM12.1433 10.5712C12.1728 10.6679 12.188 10.7714 12.188 10.883H12.6723C12.6723 10.7265 12.6508 10.5753 12.6066 10.4302L12.1433 10.5712ZM12.188 10.883V11.2456H12.6723V10.883H12.188ZM12.1639 10.8002C12.1639 10.643 12.1342 10.4927 12.0725 10.3521L11.6291 10.5468C11.662 10.6217 11.6796 10.7052 11.6796 10.8002H12.1639ZM12.0734 10.3541C12.0138 10.215 11.93 10.0922 11.8222 9.98785L11.4853 10.3357C11.5457 10.3942 11.5933 10.4632 11.6283 10.5448L12.0734 10.3541ZM11.825 9.99055C11.7208 9.8864 11.5989 9.805 11.4615 9.74609L11.2707 10.1912C11.3539 10.2269 11.4238 10.2742 11.4825 10.333L11.825 9.99055ZM11.4634 9.74694C11.3228 9.68523 11.1725 9.65558 11.0153 9.65558V10.1399C11.1104 10.1399 11.1939 10.1575 11.2687 10.1904L11.4634 9.74694ZM11.0153 9.65558H9.75812V10.1399H11.0153V9.65558ZM9.51598 9.89772V12.1481H10.0003V9.89772H9.51598ZM9.75812 12.3902H11.0153V11.9059H9.75812V12.3902ZM11.0153 12.3902C11.1725 12.3902 11.3228 12.3605 11.4634 12.2988L11.2687 11.8554C11.1939 11.8883 11.1104 11.9059 11.0153 11.9059V12.3902ZM11.4615 12.2997C11.5989 12.2408 11.7208 12.1594 11.825 12.0552L11.4825 11.7128C11.4238 11.7715 11.3539 11.8189 11.2707 11.8546L11.4615 12.2997ZM11.8222 12.0579C11.929 11.9545 12.0127 11.8339 12.0725 11.6976L11.6291 11.5029C11.5944 11.5821 11.5467 11.6506 11.4853 11.7101L11.8222 12.0579ZM12.0734 11.6956C12.1342 11.5536 12.1639 11.4028 12.1639 11.2456H11.6796C11.6796 11.3406 11.662 11.4262 11.6283 11.5049L12.0734 11.6956ZM12.1639 11.2456V10.8002H11.6796V11.2456H12.1639ZM12.1639 8.37252C12.1639 8.21535 12.1342 8.065 12.0725 7.92443L11.6291 8.11911C11.662 8.19398 11.6796 8.27747 11.6796 8.37252H12.1639ZM12.0734 7.92639C12.0138 7.78731 11.93 7.66452 11.8222 7.56016L11.4853 7.90799C11.5457 7.96652 11.5933 8.03553 11.6283 8.11715L12.0734 7.92639ZM11.8277 7.56559C11.7233 7.45787 11.6005 7.37406 11.4615 7.31446L11.2707 7.75958C11.3523 7.79456 11.4213 7.84213 11.4799 7.90255L11.8277 7.56559ZM11.4634 7.31531C11.3228 7.25359 11.1725 7.22394 11.0153 7.22394V7.70822C11.1104 7.70822 11.1939 7.72586 11.2687 7.75873L11.4634 7.31531ZM11.0153 7.22394H9.75812V7.70822H11.0153V7.22394ZM9.51598 7.46608V9.41296H10.0003V7.46608H9.51598ZM9.75812 9.6551H11.0153V9.17083H9.75812V9.6551ZM11.0153 9.6551C11.1725 9.6551 11.3228 9.62545 11.4634 9.56374L11.2687 9.12031C11.1939 9.15318 11.1104 9.17083 11.0153 9.17083V9.6551ZM11.4615 9.56459C11.5989 9.50568 11.7208 9.42428 11.825 9.32013L11.4825 8.9777C11.4238 9.03644 11.3539 9.08379 11.2707 9.11946L11.4615 9.56459ZM11.825 9.32013C11.9301 9.21501 12.013 9.09412 12.0725 8.95855L11.6291 8.76388C11.594 8.84375 11.5456 8.91466 11.4825 8.9777L11.825 9.32013ZM12.0734 8.9566C12.1342 8.8146 12.1639 8.66374 12.1639 8.50652H11.6796C11.6796 8.60153 11.662 8.68713 11.6283 8.76583L12.0734 8.9566ZM12.1639 8.50652V8.37252H11.6796V8.50652H12.1639ZM16.383 11.8643L16.1638 11.7615L16.1625 11.7644L16.383 11.8643ZM16.0717 12.3057L15.904 12.131L15.9023 12.1327L16.0717 12.3057ZM15.6185 12.6052L15.7114 12.8288L15.713 12.8281L15.6185 12.6052ZM14.1209 12.6052L14.0251 12.8276L14.0292 12.8293L14.1209 12.6052ZM13.6676 12.3057L13.4982 12.4787L13.5 12.4804L13.6676 12.3057ZM13.3563 11.8643L13.1357 11.9643L13.1371 11.9671L13.3563 11.8643ZM13.242 11.0997L13.2031 10.8607L12.9999 10.8938V11.0997H13.242ZM13.7504 11.017H13.9926V10.7322L13.7115 10.778L13.7504 11.017ZM13.8253 11.6791L13.6046 11.7789L13.6077 11.7852L13.8253 11.6791ZM14.0342 11.9668L13.8656 12.1406L13.8684 12.1433L14.0342 11.9668ZM14.3337 12.1599L14.2402 12.3833L14.242 12.384L14.3337 12.1599ZM15.7091 11.9668L15.8749 12.1433L15.8777 12.1406L15.7091 11.9668ZM15.9141 11.6791L15.6954 11.575L15.6944 11.5773L15.9141 11.6791ZM15.8786 10.6702L16.087 10.5468L15.8786 10.6702ZM15.5751 10.3431L15.4324 10.5387L15.4352 10.5406L15.5751 10.3431ZM15.1455 10.1105L15.0556 10.3354L15.0569 10.3359L15.1455 10.1105ZM14.6569 9.92136L14.7419 9.69464L14.6569 9.92136ZM14.1642 9.71249L14.0589 9.9305L14.0603 9.93117L14.1642 9.71249ZM13.7386 9.42873L13.575 9.60723L13.577 9.60908L13.7386 9.42873ZM13.4272 7.74984L13.2054 7.65277L13.2041 7.65572L13.4272 7.74984ZM14.1682 7.01286L14.2623 7.23596L14.264 7.23524L14.1682 7.01286ZM15.6145 7.01286L15.5175 7.23471L15.5204 7.23596L15.6145 7.01286ZM16.3515 7.74984L16.1284 7.84396L16.1297 7.84689L16.3515 7.74984ZM16.4619 8.43558L16.5008 8.67457L16.704 8.64149V8.43558H16.4619ZM15.9535 8.51834H15.7113V8.80309L15.9924 8.75734L15.9535 8.51834ZM15.8825 7.93901L15.66 8.03439L15.6608 8.03634L15.8825 7.93901ZM15.4017 7.4582L15.3044 7.67992L15.3063 7.68076L15.4017 7.4582ZM14.381 7.4582L14.2856 7.23563L14.2836 7.23648L14.381 7.4582ZM14.0933 7.65131L13.9248 7.47737L13.9221 7.48009L14.0933 7.65131ZM13.9002 7.93901L14.1219 8.03635L14.1227 8.03439L13.9002 7.93901ZM14.247 9.17256L14.107 9.37017L14.1098 9.37209L14.247 9.17256ZM14.6726 9.40114L14.5795 9.6247L14.584 9.62647L14.6726 9.40114ZM15.1653 9.59819L15.0741 9.82255L15.0772 9.82374L15.1653 9.59819ZM15.6539 9.81889L15.5428 10.0341L15.5471 10.0362L15.6539 9.81889ZM16.0835 10.1145L15.9179 10.2911L15.9199 10.293L16.0835 10.1145ZM16.387 10.5401L16.6075 10.4402L16.387 10.5401ZM16.2591 11.3244C16.2591 11.4819 16.227 11.6266 16.1638 11.7615L16.6023 11.9671C16.6967 11.7657 16.7434 11.5505 16.7434 11.3244H16.2591ZM16.1625 11.7644C16.0988 11.9049 16.0129 12.0265 15.904 12.131L16.2394 12.4804C16.3933 12.3326 16.5149 12.16 16.6036 11.9642L16.1625 11.7644ZM15.9023 12.1327C15.7961 12.2367 15.6707 12.32 15.5239 12.3823L15.713 12.8281C15.913 12.7433 16.0898 12.6269 16.2411 12.4787L15.9023 12.1327ZM15.5256 12.3816C15.3853 12.4399 15.2357 12.4695 15.0746 12.4695V12.9538C15.2971 12.9538 15.51 12.9125 15.7114 12.8288L15.5256 12.3816ZM15.0746 12.4695H14.6687V12.9538H15.0746V12.4695ZM14.6687 12.4695C14.5076 12.4695 14.3562 12.4399 14.2126 12.3811L14.0292 12.8293C14.2324 12.9125 14.4462 12.9538 14.6687 12.9538V12.4695ZM14.2167 12.3828C14.0719 12.3205 13.9453 12.2366 13.8353 12.131L13.5 12.4804C13.6527 12.627 13.8282 12.7428 14.0251 12.8276L14.2167 12.3828ZM13.8371 12.1327C13.7296 12.0275 13.6425 11.9043 13.5756 11.7615L13.1371 11.9671C13.2278 12.1606 13.3482 12.3317 13.4982 12.4787L13.8371 12.1327ZM13.5769 11.7644C13.5154 11.6288 13.4842 11.4831 13.4842 11.3244H12.9999C12.9999 11.5493 13.0448 11.7635 13.1358 11.9642L13.5769 11.7644ZM13.4842 11.3244V11.0997H12.9999V11.3244H13.4842ZM13.2809 11.3387L13.7893 11.256L13.7115 10.778L13.2031 10.8607L13.2809 11.3387ZM13.5083 11.017V11.3244H13.9926V11.017H13.5083ZM13.5083 11.3244C13.5083 11.4835 13.54 11.6359 13.6047 11.7789L14.0459 11.5793C14.0108 11.5016 13.9926 11.4175 13.9926 11.3244H13.5083ZM13.6077 11.7852C13.6726 11.9184 13.7589 12.0371 13.8656 12.1406L14.2027 11.7929C14.136 11.7283 14.0831 11.6552 14.0429 11.5729L13.6077 11.7852ZM13.8684 12.1433C13.9768 12.2451 14.1013 12.3251 14.2402 12.3832L14.4272 11.9365C14.3401 11.9001 14.2649 11.8513 14.2 11.7903L13.8684 12.1433ZM14.242 12.384C14.387 12.4433 14.539 12.473 14.6963 12.473V11.9887C14.6013 11.9887 14.5116 11.971 14.4254 11.9358L14.242 12.384ZM14.6963 12.473H15.051V11.9887H14.6963V12.473ZM15.051 12.473C15.2082 12.473 15.3596 12.4433 15.5031 12.3832L15.3161 11.9365C15.2336 11.9711 15.1459 11.9887 15.051 11.9887V12.473ZM15.5031 12.3832C15.642 12.3251 15.7665 12.2451 15.8749 12.1433L15.5433 11.7903C15.4784 11.8513 15.4032 11.9001 15.3161 11.9365L15.5031 12.3832ZM15.8777 12.1406C15.9853 12.0362 16.0711 11.916 16.1337 11.7809L15.6944 11.5773C15.6571 11.6576 15.6063 11.7292 15.5406 11.7929L15.8777 12.1406ZM16.1327 11.7832C16.2012 11.6393 16.235 11.4853 16.235 11.3244H15.7507C15.7507 11.4157 15.732 11.4982 15.6954 11.575L16.1327 11.7832ZM16.235 11.3244V11.1549H15.7507V11.3244H16.235ZM16.235 11.1549C16.235 10.9298 16.1909 10.7225 16.087 10.5468L15.6702 10.7935C15.7186 10.8753 15.7507 10.9912 15.7507 11.1549H16.235ZM16.087 10.5468C15.9929 10.3878 15.868 10.2538 15.7151 10.1455L15.4352 10.5406C15.5344 10.611 15.6119 10.695 15.6702 10.7935L16.087 10.5468ZM15.7178 10.1474C15.5734 10.0421 15.4117 9.95504 15.2342 9.88521L15.0569 10.3359C15.1999 10.3921 15.3246 10.4601 15.4325 10.5387L15.7178 10.1474ZM15.2355 9.88571C15.0761 9.82197 14.9116 9.75828 14.7419 9.69464L14.5718 10.1481C14.7384 10.2106 14.8997 10.273 15.0556 10.3354L15.2355 9.88571ZM14.7419 9.69464C14.5801 9.63396 14.4222 9.56701 14.2682 9.4938L14.0603 9.93117C14.2268 10.0103 14.3973 10.0826 14.5718 10.1481L14.7419 9.69464ZM14.2696 9.49448C14.1317 9.4278 14.0088 9.34572 13.9002 9.24837L13.577 9.60908C13.7206 9.73769 13.8815 9.84478 14.0589 9.93049L14.2696 9.49448ZM13.9022 9.25024C13.8013 9.15777 13.7187 9.044 13.6551 8.90579L13.2152 9.10828C13.3039 9.30112 13.4236 9.46848 13.575 9.60722L13.9022 9.25024ZM13.6551 8.90579C13.5975 8.78059 13.563 8.61381 13.563 8.39617H13.0787C13.0787 8.66197 13.1204 8.90243 13.2152 9.10828L13.6551 8.90579ZM13.563 8.39617V8.28976H13.0787V8.39617H13.563ZM13.563 8.28976C13.563 8.12862 13.5926 7.98081 13.6503 7.84396L13.2041 7.65572C13.12 7.85516 13.0787 8.06731 13.0787 8.28976H13.563ZM13.6491 7.84689C13.7109 7.70558 13.7938 7.5838 13.898 7.47966L13.5555 7.13722C13.4075 7.28531 13.2907 7.45779 13.2054 7.65278L13.6491 7.84689ZM13.898 7.47966C14.0015 7.37617 14.1223 7.29503 14.2623 7.23596L14.074 6.78976C13.8778 6.87256 13.7043 6.98848 13.5555 7.13722L13.898 7.47966ZM14.264 7.23524C14.4035 7.17512 14.5521 7.14465 14.712 7.14465V6.66037C14.4883 6.66037 14.2744 6.70346 14.0724 6.79047L14.264 7.23524ZM14.712 7.14465H15.0746V6.66037H14.712V7.14465ZM15.0746 7.14465C15.2345 7.14465 15.3813 7.17512 15.5175 7.23469L15.7116 6.79102C15.5115 6.70346 15.2983 6.66037 15.0746 6.66037V7.14465ZM15.5204 7.23596C15.6604 7.29503 15.7812 7.37617 15.8847 7.47966L16.2272 7.13722C16.0784 6.98848 15.9049 6.87256 15.7087 6.78976L15.5204 7.23596ZM15.8847 7.47966C15.9882 7.58314 16.0693 7.70393 16.1284 7.84396L16.5746 7.65572C16.4918 7.45944 16.3759 7.28596 16.2272 7.13722L15.8847 7.47966ZM16.1297 7.84689C16.1893 7.98306 16.2197 8.12983 16.2197 8.28976H16.704C16.704 8.06609 16.6609 7.85291 16.5733 7.65278L16.1297 7.84689ZM16.2197 8.28976V8.43558H16.704V8.28976H16.2197ZM16.423 8.19659L15.9146 8.27935L15.9924 8.75734L16.5008 8.67457L16.423 8.19659ZM16.1956 8.51834V8.28976H15.7113V8.51834H16.1956ZM16.1956 8.28976C16.1956 8.13258 16.166 7.98224 16.1042 7.84167L15.6608 8.03634C15.6937 8.11122 15.7113 8.19471 15.7113 8.28976H16.1956ZM16.1051 7.84362C16.0462 7.70618 15.9648 7.58424 15.8606 7.48009L15.5182 7.82253C15.5769 7.88128 15.6243 7.95114 15.66 8.03439L16.1051 7.84362ZM15.8606 7.48009C15.7565 7.37594 15.6345 7.29454 15.4971 7.23564L15.3063 7.68076C15.3896 7.71644 15.4594 7.76378 15.5182 7.82253L15.8606 7.48009ZM15.4991 7.23648C15.3585 7.17477 15.2081 7.14512 15.051 7.14512V7.6294C15.146 7.6294 15.2295 7.64704 15.3044 7.67991L15.4991 7.23648ZM15.051 7.14512H14.7357V7.6294H15.051V7.14512ZM14.7357 7.14512C14.5785 7.14512 14.4276 7.17478 14.2856 7.23564L14.4764 7.68076C14.5551 7.64703 14.6407 7.6294 14.7357 7.6294V7.14512ZM14.2836 7.23648C14.1497 7.29529 14.0297 7.37581 13.9248 7.4774L14.2618 7.82522C14.3251 7.76391 14.3968 7.71569 14.4783 7.67991L14.2836 7.23648ZM13.9221 7.48009C13.8179 7.58424 13.7365 7.70618 13.6776 7.84362L14.1227 8.03439C14.1584 7.95114 14.2058 7.88128 14.2645 7.82253L13.9221 7.48009ZM13.6785 7.84167C13.6167 7.98224 13.5871 8.13258 13.5871 8.28976H14.0714C14.0714 8.19471 14.089 8.11122 14.1219 8.03634L13.6785 7.84167ZM13.5871 8.28976V8.39617H14.0714V8.28976H13.5871ZM13.5871 8.39617C13.5871 8.61123 13.6324 8.8103 13.7375 8.98048L14.1496 8.72618C14.1022 8.6494 14.0714 8.54369 14.0714 8.39617H13.5871ZM13.7375 8.98048C13.8318 9.13342 13.9561 9.26326 14.107 9.37015L14.3869 8.97497C14.2856 8.9032 14.2076 8.82022 14.1496 8.72618L13.7375 8.98048ZM14.1098 9.37209C14.2512 9.46931 14.4081 9.55325 14.5795 9.62465L14.7658 9.17763C14.6218 9.11766 14.495 9.04921 14.3842 8.97303L14.1098 9.37209ZM14.584 9.62647C14.7434 9.68918 14.9067 9.75453 15.0741 9.82253L15.2564 9.37386C15.0875 9.30523 14.9224 9.23921 14.7613 9.17582L14.584 9.62647ZM15.0772 9.82374C15.2376 9.8864 15.3928 9.95651 15.5428 10.034L15.7651 9.60377C15.5998 9.51838 15.4292 9.44135 15.2534 9.37265L15.0772 9.82374ZM15.5471 10.0362C15.6866 10.1048 15.8098 10.1898 15.9179 10.2911L16.2491 9.93782C16.105 9.80268 15.9418 9.69064 15.7608 9.60161L15.5471 10.0362ZM15.9199 10.293C16.0201 10.3848 16.1026 10.4993 16.1664 10.64L16.6075 10.4402C16.5189 10.2446 16.3992 10.0754 16.2471 9.93598L15.9199 10.293ZM16.1664 10.64C16.2247 10.7687 16.2591 10.9375 16.2591 11.1549H16.7434C16.7434 10.8889 16.7016 10.6478 16.6075 10.4402L16.1664 10.64ZM16.2591 11.1549V11.3244H16.7434V11.1549H16.2591Z" fill="#2174A6" mask="url(#path-4-outside-1_1030_2788)"/>
</svg>
