<svg width="24" height="25" viewBox="0 0 24 25" fill="none" xmlns="http://www.w3.org/2000/svg">
<circle cx="11" cy="11" r="11" fill="#E91313"/>
<circle cx="11" cy="8" r="2.4" stroke="white" stroke-width="1.2"/>
<path d="M15 15C15 12.7909 13.2091 11 11 11C8.79086 11 7 12.7909 7 15" stroke="white" stroke-width="1.2"/>
<path d="M16.5 23C18.0354 23 19.3359 22.4672 20.4016 21.4016C21.4672 20.3359 22 19.0354 22 17.5C22 15.9646 21.4672 14.6641 20.4016 13.5984C19.3359 12.5328 18.0354 12 16.5 12C14.9646 12 13.6641 12.5328 12.5984 13.5984C11.5328 14.6641 11 15.9646 11 17.5C11 19.0354 11.5328 20.3359 12.5984 21.4016C13.6641 22.4672 14.9646 23 16.5 23Z" fill="white"/>
<path d="M16.5 20.9375C16.6948 20.9375 16.8581 20.8716 16.9898 20.7398C17.1216 20.6081 17.1875 20.4448 17.1875 20.25C17.1875 20.0552 17.1216 19.8919 16.9898 19.7602C16.8581 19.6284 16.6948 19.5625 16.5 19.5625C16.3052 19.5625 16.1419 19.6284 16.0102 19.7602C15.8784 19.8919 15.8125 20.0552 15.8125 20.25C15.8125 20.4448 15.8784 20.6081 16.0102 20.7398C16.1419 20.8716 16.3052 20.9375 16.5 20.9375ZM15.8125 18.1875H17.1875V14.0625H15.8125V18.1875Z" fill="black"/>
</svg>
