<svg width="40" height="40" viewBox="0 0 40 40" fill="none" xmlns="http://www.w3.org/2000/svg">
<path d="M19 9V18H10.6875C10.457 17.457 10.0898 16.7305 9.46875 15.9062C8.41406 14.5039 6.60547 13 4 13V15C5.85547 15 7.04688 15.9961 7.875 17.0938C8.66406 18.1406 8.96875 19.125 9 19.2188C9.08203 22.6094 11.082 25.5391 13.9375 27C12.3203 27.0352 11 28.375 11 30C11 31.6445 12.3555 33 14 33C15.6445 33 17 31.6445 17 30C17 29.1133 16.6172 28.3008 16 27.75C16.6445 27.8984 17.3125 28 18 28H21C21.6875 28 22.3555 27.8984 23 27.75C22.3828 28.3008 22 29.1133 22 30C22 31.6445 23.3555 33 25 33C26.6445 33 28 31.6445 28 30C28 28.375 26.6797 27.0352 25.0625 27C27.6953 25.6523 29.5898 23.0547 29.9375 20C29.9688 19.7109 29.9961 19.4219 30 19.125C30 19.1055 30 19.082 30 19.0625C30 19.0625 30.0078 18.8984 30 18.625V18H29.9375C29.8633 17.043 29.6641 15.5938 28.9375 14.0625C27.7461 11.5547 25.0469 9 20 9H19ZM21 11.125C24.6133 11.4219 26.293 13.1211 27.1562 14.9375C27.7461 16.1836 27.8789 17.2305 27.9375 18H21V11.125ZM11.2188 20H27.7812C27.2734 23.3633 24.5 26 21 26H18C14.5 26 11.7266 23.3633 11.2188 20ZM14 29C14.5625 29 15 29.4375 15 30C15 30.5625 14.5625 31 14 31C13.4375 31 13 30.5625 13 30C13 29.4375 13.4375 29 14 29ZM25 29C25.5625 29 26 29.4375 26 30C26 30.5625 25.5625 31 25 31C24.4375 31 24 30.5625 24 30C24 29.4375 24.4375 29 25 29Z" fill="#2174A6"/>
</svg>

