<svg width="24" height="25" viewBox="0 0 24 25" fill="none" xmlns="http://www.w3.org/2000/svg">
<circle cx="11" cy="11.9375" r="11" fill="#E91313"/>
<path d="M11.5859 6.9375V11.4375H7.42969C7.31445 11.166 7.13086 10.8027 6.82031 10.3906C6.29297 9.68945 5.38867 8.9375 4.08594 8.9375V9.9375C5.01367 9.9375 5.60938 10.4355 6.02344 10.9844C6.41797 11.5078 6.57031 12 6.58594 12.0469C6.62695 13.7422 7.62695 15.207 9.05469 15.9375C8.24609 15.9551 7.58594 16.625 7.58594 17.4375C7.58594 18.2598 8.26367 18.9375 9.08594 18.9375C9.9082 18.9375 10.5859 18.2598 10.5859 17.4375C10.5859 16.9941 10.3945 16.5879 10.0859 16.3125C10.4082 16.3867 10.7422 16.4375 11.0859 16.4375H12.5859C12.9297 16.4375 13.2637 16.3867 13.5859 16.3125C13.2773 16.5879 13.0859 16.9941 13.0859 17.4375C13.0859 18.2598 13.7637 18.9375 14.5859 18.9375C15.4082 18.9375 16.0859 18.2598 16.0859 17.4375C16.0859 16.625 15.4258 15.9551 14.6172 15.9375C15.9336 15.2637 16.8809 13.9648 17.0547 12.4375C17.0703 12.293 17.084 12.1484 17.0859 12C17.0859 11.9902 17.0859 11.9785 17.0859 11.9688C17.0859 11.9688 17.0898 11.8867 17.0859 11.75V11.4375H17.0547C17.0176 10.959 16.918 10.2344 16.5547 9.46875C15.959 8.21484 14.6094 6.9375 12.0859 6.9375H11.5859ZM12.5859 8C14.3926 8.14844 15.2324 8.99805 15.6641 9.90625C15.959 10.5293 16.0254 11.0527 16.0547 11.4375H12.5859V8ZM7.69531 12.4375H15.9766C15.7227 14.1191 14.3359 15.4375 12.5859 15.4375H11.0859C9.33594 15.4375 7.94922 14.1191 7.69531 12.4375ZM9.08594 16.9375C9.36719 16.9375 9.58594 17.1562 9.58594 17.4375C9.58594 17.7188 9.36719 17.9375 9.08594 17.9375C8.80469 17.9375 8.58594 17.7188 8.58594 17.4375C8.58594 17.1562 8.80469 16.9375 9.08594 16.9375ZM14.5859 16.9375C14.8672 16.9375 15.0859 17.1562 15.0859 17.4375C15.0859 17.7188 14.8672 17.9375 14.5859 17.9375C14.3047 17.9375 14.0859 17.7188 14.0859 17.4375C14.0859 17.1562 14.3047 16.9375 14.5859 16.9375Z" fill="white"/>
<path d="M16.5 23.9375C18.0354 23.9375 19.3359 23.4047 20.4016 22.3391C21.4672 21.2734 22 19.9729 22 18.4375C22 16.9021 21.4672 15.6016 20.4016 14.5359C19.3359 13.4703 18.0354 12.9375 16.5 12.9375C14.9646 12.9375 13.6641 13.4703 12.5984 14.5359C11.5328 15.6016 11 16.9021 11 18.4375C11 19.9729 11.5328 21.2734 12.5984 22.3391C13.6641 23.4047 14.9646 23.9375 16.5 23.9375Z" fill="white"/>
<path d="M16.5 21.875C16.6948 21.875 16.8581 21.8091 16.9898 21.6773C17.1216 21.5456 17.1875 21.3823 17.1875 21.1875C17.1875 20.9927 17.1216 20.8294 16.9898 20.6977C16.8581 20.5659 16.6948 20.5 16.5 20.5C16.3052 20.5 16.1419 20.5659 16.0102 20.6977C15.8784 20.8294 15.8125 20.9927 15.8125 21.1875C15.8125 21.3823 15.8784 21.5456 16.0102 21.6773C16.1419 21.8091 16.3052 21.875 16.5 21.875ZM15.8125 19.125H17.1875V15H15.8125V19.125Z" fill="black"/>
</svg>
