<svg width="20" height="33" viewBox="0 0 20 33" fill="none" xmlns="http://www.w3.org/2000/svg">
<path fill-rule="evenodd" clip-rule="evenodd" d="M8 2H12V6H8V2ZM6 6V2C6 0.895431 6.89543 0 8 0H12C13.1046 0 14 0.895431 14 2V6H18C19.1046 6 20 6.89543 20 8V29C20 30.1046 19.1046 31 18 31H17V31.5C17 32.3284 16.3284 33 15.5 33C14.6716 33 14 32.3284 14 31.5V31H6V31.5C6 32.3284 5.32843 33 4.5 33C3.67157 33 3 32.3284 3 31.5V31H2C0.895431 31 0 30.1046 0 29V8C0 6.89543 0.895431 6 2 6H6ZM14 29H15H16H17H18V8H14H12H8H6H2V29H3H4H5H6H14ZM6 26L6 11H8L8 26H6ZM12 11L12 26H14L14 11H12Z" fill="#2174A6"/>
</svg>
