<svg width="40" height="40" viewBox="0 0 40 40" fill="none" xmlns="http://www.w3.org/2000/svg">
<path fill-rule="evenodd" clip-rule="evenodd" d="M18 5H22V9H18V5ZM16 9V5C16 3.89543 16.8954 3 18 3H22C23.1046 3 24 3.89543 24 5V9H28C29.1046 9 30 9.89543 30 11V32C30 33.1046 29.1046 34 28 34H27V34.5C27 35.3284 26.3284 36 25.5 36C24.6716 36 24 35.3284 24 34.5V34H16V34.5C16 35.3284 15.3284 36 14.5 36C13.6716 36 13 35.3284 13 34.5V34H12C10.8954 34 10 33.1046 10 32V11C10 9.89543 10.8954 9 12 9H16ZM24 32H25H26H27H28V11H24H22H18H16H12V32H13H14H15H16H24ZM16 29L16 14H18L18 29H16ZM22 14L22 29H24L24 14H22Z" fill="#2174A6"/>
</svg>
