<svg width="24" height="24" viewBox="0 0 24 24" fill="none" xmlns="http://www.w3.org/2000/svg">
<path fill-rule="evenodd" clip-rule="evenodd" d="M2 4V20H15.6556L17.6556 18H4V6H20V15.6556L22 13.6556V4H2ZM13 17H11V16H9V14H13V13H10C9.71667 13 9.47917 12.9042 9.2875 12.7125C9.09583 12.5208 9 12.2833 9 12V9C9 8.71667 9.09583 8.47917 9.2875 8.2875C9.47917 8.09583 9.71667 8 10 8H11V7H13V8H15V10H11V11H14C14.2833 11 14.5208 11.0958 14.7125 11.2875C14.9042 11.4792 15 11.7167 15 12V15C15 15.2833 14.9042 15.5208 14.7125 15.7125C14.5208 15.9042 14.2833 16 14 16H13V17Z" fill="black"/>
<path d="M18.9995 19.8283L21.828 16.9998V19.8283H18.9995Z" fill="black"/>
</svg>
