<svg width="24" height="25" viewBox="0 0 24 25" fill="none" xmlns="http://www.w3.org/2000/svg">
<circle cx="11" cy="11.9375" r="11" fill="#E91313"/>
<path fill-rule="evenodd" clip-rule="evenodd" d="M10.3933 5.84848L12.0902 5.84848V7.54479H10.3933L10.3933 5.84848ZM9.54479 7.54479V5.84849C9.54479 5.37988 9.92467 5 10.3933 5H12.0902C12.5589 5 12.9387 5.37988 12.9387 5.84848V7.54479H14.6364C15.105 7.54479 15.4848 7.92467 15.4848 8.39328V17.3024C15.4848 17.771 15.105 18.1509 14.6364 18.1509H14.2115V18.1515V18.3636C14.2115 18.7151 13.9265 19 13.5751 19C13.2236 19 12.9387 18.7151 12.9387 18.3636V18.1515V18.1509H9.54479V18.1515V18.3636C9.54479 18.7151 9.25988 19 8.90843 19C8.55697 19 8.27206 18.7151 8.27206 18.3636L8.27206 18.1515V18.1509H7.84848C7.37988 18.1509 7 17.771 7 17.3024V8.39328C7 7.92467 7.37988 7.54479 7.84848 7.54479H9.54479ZM9.54479 8.39328H7.84848V17.3024H14.6364V8.39328H12.9387V8.39394H12.0902H10.3933H9.54479V8.39328ZM9.54479 16.0303L9.54479 9.66667H10.3933L10.3933 16.0303H9.54479ZM12.0896 9.66667L12.0896 16.0303H12.9381L12.9381 9.66667H12.0896Z" fill="white"/>
<path d="M16.5 23.9375C18.0354 23.9375 19.3359 23.4047 20.4016 22.3391C21.4672 21.2734 22 19.9729 22 18.4375C22 16.9021 21.4672 15.6016 20.4016 14.5359C19.3359 13.4703 18.0354 12.9375 16.5 12.9375C14.9646 12.9375 13.6641 13.4703 12.5984 14.5359C11.5328 15.6016 11 16.9021 11 18.4375C11 19.9729 11.5328 21.2734 12.5984 22.3391C13.6641 23.4047 14.9646 23.9375 16.5 23.9375Z" fill="white"/>
<path d="M16.5 21.875C16.6948 21.875 16.8581 21.8091 16.9898 21.6773C17.1216 21.5456 17.1875 21.3823 17.1875 21.1875C17.1875 20.9927 17.1216 20.8294 16.9898 20.6977C16.8581 20.5659 16.6948 20.5 16.5 20.5C16.3052 20.5 16.1419 20.5659 16.0102 20.6977C15.8784 20.8294 15.8125 20.9927 15.8125 21.1875C15.8125 21.3823 15.8784 21.5456 16.0102 21.6773C16.1419 21.8091 16.3052 21.875 16.5 21.875ZM15.8125 19.125H17.1875V15H15.8125V19.125Z" fill="black"/>
</svg>
