<svg width="24" height="25" viewBox="0 0 24 25" fill="none" xmlns="http://www.w3.org/2000/svg">
<circle cx="11" cy="11.9375" r="11" fill="#119C40"/>
<path fill-rule="evenodd" clip-rule="evenodd" d="M10.3933 5.84848L12.0902 5.84848V7.54479H10.3933L10.3933 5.84848ZM9.54479 7.54479V5.84849C9.54479 5.37988 9.92467 5 10.3933 5H12.0902C12.5589 5 12.9387 5.37988 12.9387 5.84848V7.54479H14.6364C15.105 7.54479 15.4848 7.92467 15.4848 8.39328V17.3024C15.4848 17.771 15.105 18.1509 14.6364 18.1509H14.2115V18.1515V18.3636C14.2115 18.7151 13.9265 19 13.5751 19C13.2236 19 12.9387 18.7151 12.9387 18.3636V18.1515V18.1509H9.54479V18.1515V18.3636C9.54479 18.7151 9.25988 19 8.90843 19C8.55697 19 8.27206 18.7151 8.27206 18.3636L8.27206 18.1515V18.1509H7.84848C7.37988 18.1509 7 17.771 7 17.3024V8.39328C7 7.92467 7.37988 7.54479 7.84848 7.54479H9.54479ZM9.54479 8.39328H7.84848V17.3024H14.6364V8.39328H12.9387V8.39394H12.0902H10.3933H9.54479V8.39328ZM9.54479 16.0303L9.54479 9.66667H10.3933L10.3933 16.0303H9.54479ZM12.0896 9.66667L12.0896 16.0303H12.9381L12.9381 9.66667H12.0896Z" fill="white"/>
<path d="M21.296 18.4688C21.296 21.1348 19.1348 23.296 16.4688 23.296C13.8027 23.296 11.6415 21.1348 11.6415 18.4688C11.6415 15.8027 13.8027 13.6415 16.4688 13.6415C19.1348 13.6415 21.296 15.8027 21.296 18.4688Z" fill="white" stroke="white" stroke-width="1.408" stroke-linecap="round" stroke-linejoin="round"/>
<path d="M18.533 17.5L16.3353 19.9203L14.6562 18.4336" stroke="#119C40" stroke-width="1.408" stroke-linecap="round" stroke-linejoin="round"/>
</svg>
