<svg width="16" height="33" viewBox="0 0 16 33" fill="none" xmlns="http://www.w3.org/2000/svg">
<path fill-rule="evenodd" clip-rule="evenodd" d="M6 2H10V13H6V2ZM4 13V2C4 0.89543 4.89543 0 6 0H10C11.1046 0 12 0.895431 12 2V13H14H14.7059C15.4206 13 16 13.5794 16 14.2941V15V16V29C16 30.1046 15.1046 31 14 31V31.5C14 32.3284 13.3284 33 12.5 33C11.6716 33 11 32.3284 11 31.5V31H5V31.5C5 32.3284 4.32843 33 3.5 33C2.67157 33 2 32.3284 2 31.5V31C0.895431 31 0 30.1046 0 29V16V15V14.2941C0 13.5794 0.579396 13 1.29412 13H2H4ZM2 21.2916V29H3.5H12.5H14V21.2916C12.7419 22.7171 10.9837 23.6907 9 23.9381V24C9 24.5523 8.55228 25 8 25C7.44772 25 7 24.5523 7 24V23.9381C5.01628 23.6907 3.25812 22.7171 2 21.2916ZM14 16V15H10H6H2V16C2 18.9742 4.16399 21.4429 7.00335 21.9176C7.04525 21.4039 7.47546 21 8 21C8.52454 21 8.95475 21.4039 8.99665 21.9176C11.836 21.4429 14 18.9742 14 16Z" fill="#2174A6"/>
</svg>

