<svg width="21" height="31" viewBox="0 0 21 31" fill="none" xmlns="http://www.w3.org/2000/svg">
<path d="M6.38281 5.59871V3.82093C6.38281 2.41831 7.51987 1.28125 8.9225 1.28125H11.9701C13.3727 1.28125 14.5098 2.41831 14.5098 3.82093V5.59871" stroke="#2174A6" stroke-width="2"/>
<path d="M2.14959 9.28601C2.21468 7.64254 3.56593 6.34375 5.21068 6.34375H15.6849C17.3297 6.34375 18.6809 7.64254 18.746 9.28601L19.44 26.8098C19.5088 28.5479 18.1184 29.9945 16.3789 29.9945H4.51667C2.7772 29.9945 1.38674 28.5479 1.45558 26.8098L2.14959 9.28601Z" stroke="#2174A6" stroke-width="2"/>
<path d="M4.70849 20.0145C4.70879 20.0111 4.70943 20.0097 4.7098 20.009C4.71041 20.0078 4.7116 20.006 4.71358 20.0042C4.71557 20.0024 4.71744 20.0013 4.7187 20.0008C4.71946 20.0005 4.72086 20 4.7243 20H16.2757C16.2791 20 16.2805 20.0005 16.2813 20.0008C16.2826 20.0013 16.2844 20.0024 16.2864 20.0042C16.2884 20.006 16.2896 20.0078 16.2902 20.009C16.2906 20.0097 16.2912 20.0111 16.2915 20.0145L16.7113 24.7724C16.817 25.9697 15.8735 27 14.6716 27H6.32837C5.12647 27 4.18303 25.9697 4.28867 24.7724L4.70849 20.0145Z" stroke="#2174A6" stroke-width="2"/>
<mask id="path-4-inside-1_1030_2415" fill="white">
<path d="M14 22L14.866 25H13.134L14 22Z"/>
</mask>
<path d="M14 22L15.9215 21.4453L14 14.7889L12.0785 21.4453L14 22ZM14.866 25V27H17.525L16.7876 24.4453L14.866 25ZM13.134 25L11.2124 24.4453L10.475 27H13.134V25ZM12.0785 22.5547L12.9445 25.5547L16.7876 24.4453L15.9215 21.4453L12.0785 22.5547ZM14.866 23H13.134V27H14.866V23ZM15.0555 25.5547L15.9215 22.5547L12.0785 21.4453L11.2124 24.4453L15.0555 25.5547Z" fill="#2174A6" mask="url(#path-4-inside-1_1030_2415)"/>
<mask id="path-6-inside-2_1030_2415" fill="white">
<path d="M13 9L13.866 12H12.134L13 9Z"/>
</mask>
<path d="M13 9L14.9215 8.4453L13 1.7889L11.0785 8.4453L13 9ZM13.866 12V14H16.525L15.7876 11.4453L13.866 12ZM12.134 12L10.2124 11.4453L9.47496 14H12.134V12ZM11.0785 9.5547L11.9445 12.5547L15.7876 11.4453L14.9215 8.4453L11.0785 9.5547ZM13.866 10H12.134V14H13.866V10ZM14.0555 12.5547L14.9215 9.5547L11.0785 8.4453L10.2124 11.4453L14.0555 12.5547Z" fill="#2174A6" mask="url(#path-6-inside-2_1030_2415)"/>
<path d="M5 12L5.033 10.9379C5.06656 9.85802 5.95165 9 7.03204 9H13.968C15.0483 9 15.9334 9.85802 15.967 10.9379L16 12" stroke="#2174A6" stroke-width="2" stroke-linecap="round"/>
<line x1="5.5" y1="22.5" x2="15.5" y2="22.5" stroke="#2174A6" stroke-linecap="round"/>
</svg>
