<svg width="40" height="40" viewBox="0 0 40 40" fill="none" xmlns="http://www.w3.org/2000/svg">
<path d="M26 13.5C26 16.4691 23.3848 19 20 19C16.6152 19 14 16.4691 14 13.5C14 10.5309 16.6152 8 20 8C23.3848 8 26 10.5309 26 13.5Z" stroke="#2174A6" stroke-width="2"/>
<path d="M20 19C17.7332 19 15.6745 19.1436 14.2613 19.2755C13.0361 19.3899 11.9658 20.1141 11.3506 21.1797L8.15038 26.7226C7.50641 27.838 7.88858 29.2642 9.00396 29.9082V29.9082C10.0965 30.539 11.4925 30.1866 12.1548 29.1129L15 24.5L14 31.0408" stroke="#2174A6" stroke-width="2" stroke-linejoin="round"/>
<path d="M19.9844 19C22.3372 19 24.6233 19.1547 26.1768 19.2905C27.427 19.3998 28.528 20.1304 29.1554 21.2172L32.3042 26.6709C32.9646 27.8148 32.5727 29.2776 31.4287 29.938V29.938C30.3498 30.561 28.9733 30.2513 28.2651 29.2262L25 24.5L26.5 31.0408" stroke="#2174A6" stroke-width="2" stroke-linejoin="round"/>
</svg>
