<svg width="24" height="19" viewBox="0 0 24 19" fill="none" xmlns="http://www.w3.org/2000/svg">
<path d="M4.75 11.4865C4.75 11.084 5.04155 10.7408 5.43874 10.6756L16.3259 8.89087C16.826 8.80887 17.2805 9.19485 17.2805 9.70171V16.9511C17.2805 17.4049 16.9126 17.7727 16.4588 17.7727H5.57167C5.11787 17.7727 4.75 17.4049 4.75 16.9511V11.4865Z" stroke="#2174A6" stroke-width="1.21"/>
<path d="M1.22487 2.36613C1.10086 2.04789 1.25933 1.6895 1.57818 1.56707L2.37814 1.25993C3.223 0.935551 4.17111 1.35529 4.49891 2.19882L7.63754 10.2754L4.54826 10.8948L1.22487 2.36613Z" stroke="#2174A6" stroke-width="1.21"/>
<circle cx="14.7213" cy="11.9244" r="0.924378" fill="#2174A6"/>
<path d="M17.6562 10.7891L22.9971 14.0757" stroke="#2174A6" stroke-width="1.21" stroke-linecap="round"/>
<path d="M17.485 15.3173L20.9437 12.8614" stroke="#2174A6" stroke-width="1.21" stroke-linecap="round"/>
</svg>
