<svg width="24" height="24" viewBox="0 0 24 24" fill="none" xmlns="http://www.w3.org/2000/svg">
<g clip-path="url(#clip0_1820_35761)">
<path d="M5.75177 16.0018H6.47678V15.2018C6.94344 15.1351 7.33928 14.9434 7.66428 14.6268C7.98927 14.3101 8.15178 13.9018 8.15178 13.4018C8.15178 12.9684 7.98511 12.6059 7.65178 12.3143C7.31844 12.0226 6.93511 11.7851 6.50177 11.6018V9.75177C6.66844 9.80177 6.80594 9.88511 6.91428 10.0018C7.02261 10.1184 7.10178 10.2601 7.15178 10.4268L8.05177 10.0518C7.93511 9.70178 7.73511 9.42261 7.45177 9.21427C7.16844 9.00594 6.85177 8.86844 6.50177 8.80177V8.00177H5.75177V8.77677C5.28511 8.82677 4.88927 8.99761 4.56427 9.28927C4.23927 9.58094 4.07677 9.96844 4.07677 10.4518C4.07677 10.9018 4.24761 11.2768 4.58928 11.5768C4.93094 11.8768 5.31844 12.1184 5.75177 12.3018V14.2768C5.48511 14.1934 5.26011 14.0518 5.07677 13.8518C4.89344 13.6518 4.76844 13.4184 4.70177 13.1518L3.82677 13.5268C3.96011 13.9934 4.19344 14.3768 4.52678 14.6768C4.86011 14.9768 5.26844 15.1601 5.75177 15.2268V16.0018ZM6.50177 14.2518V12.6018C6.68511 12.6851 6.84761 12.7851 6.98927 12.9018C7.13094 13.0184 7.20177 13.1934 7.20177 13.4268C7.20177 13.6934 7.13511 13.8809 7.00177 13.9893C6.86844 14.0976 6.70177 14.1851 6.50177 14.2518ZM5.75177 11.2768C5.56844 11.1934 5.40177 11.0934 5.25177 10.9768C5.10177 10.8601 5.02678 10.6851 5.02678 10.4518C5.02678 10.2184 5.10177 10.0476 5.25177 9.93927C5.40177 9.83094 5.56844 9.76011 5.75177 9.72677V11.2768ZM5.00177 19.0018C3.05177 19.0018 2.39761 19.3226 1.03927 17.9643C-0.319059 16.6059 0.00177463 13.9518 0.00177463 12.0018C0.00177463 10.0518 -0.319059 7.39761 1.03927 6.03927C2.39761 4.68094 3.05177 5.00177 5.00177 5.00177H19.0018C21.9518 5.00177 21.6059 4.68094 22.9643 6.03927C24.3226 7.39761 24.0018 10.0518 24.0018 12.0018C24.0018 13.9518 24.3226 16.6059 22.9643 17.9643C21.6059 19.3226 20.9518 19.0018 19.0018 19.0018H5.00177ZM5.00177 17.0018H19.0018C20.3851 17.0018 21.5393 16.5393 21.5393 16.5393C22.5143 15.5643 22.0018 13.3851 22.0018 12.0018C22.0018 10.6184 22.5143 8.43927 21.5393 7.46427C21.5393 7.46427 21.3851 7.00177 19.0018 7.00177H5.00177C3.61844 7.00177 2.92677 7.00177 2.46427 7.46427C1.48927 8.43927 2.00177 10.2206 2.00177 12.0018C2.00177 13.783 1.48927 15.5643 2.46427 16.5393C2.46427 16.5393 3.61844 17.0018 5.00177 17.0018Z" fill="black"/>
</g>
<defs>
<clipPath id="clip0_1820_35761">
<rect width="24" height="24" fill="white"/>
</clipPath>
</defs>
</svg>
