<svg width="12" height="12" viewBox="0 0 12 12" fill="none" xmlns="http://www.w3.org/2000/svg">
<path d="M6 12C4.34 12 2.925 11.415 1.755 10.245C0.585001 9.075 0 7.66 0 6C0 4.34 0.585001 2.925 1.755 1.755C2.925 0.585 4.34 0 6 0C7.66 0 9.075 0.585 10.245 1.755C11.415 2.925 12 4.34 12 6C12 7.66 11.415 9.075 10.245 10.245C9.075 11.415 7.66 12 6 12ZM6 9.6C6.16 9.6 6.3 9.54 6.42 9.42C6.54 9.3 6.6 9.16 6.6 9C6.6 8.84 6.54 8.7 6.42 8.58C6.3 8.46 6.16 8.4 6 8.4C5.84 8.4 5.7 8.46 5.58 8.58C5.46 8.7 5.4 8.84 5.4 9C5.4 9.16 5.46 9.3 5.58 9.42C5.7 9.54 5.84 9.6 6 9.6ZM5.4 7.2H6.6V2.4H5.4V7.2Z" fill="#2174A6"/>
</svg>
