<svg width="42" height="17" viewBox="0 0 42 17" fill="none" xmlns="http://www.w3.org/2000/svg">
<path d="M42 8.5L35.5385 17L6.46154 17L-4.10657e-07 8.5L6.46154 -8.4484e-07L35.5385 -2.55544e-07L42 8.5Z" fill="#2EF9E1"/>
<path d="M8.75679 12.0859V10.7989L10.6378 10.8099L10.7038 5.94794H10.6488L9.27379 7.34494L8.31679 6.36594L10.6928 4.28694L12.1448 4.39694V10.8209L13.8058 10.7989V12.0859H8.75679ZM17.282 12.2289C16.886 12.2289 16.5156 12.1703 16.171 12.0529C15.8336 11.9356 15.533 11.7339 15.269 11.4479C15.0123 11.1546 14.8106 10.7476 14.664 10.2269C14.5246 9.70627 14.455 9.03527 14.455 8.21394C14.455 7.40727 14.5246 6.74727 14.664 6.23394C14.8106 5.71327 15.0123 5.30994 15.269 5.02394C15.533 4.7306 15.8336 4.52527 16.171 4.40794C16.5156 4.2906 16.886 4.23194 17.282 4.23194C17.6853 4.23194 18.0556 4.2906 18.393 4.40794C18.7376 4.52527 19.0383 4.7306 19.295 5.02394C19.5516 5.30994 19.7496 5.71327 19.889 6.23394C20.0356 6.7546 20.109 7.41827 20.109 8.22494C20.109 9.03894 20.0356 9.70627 19.889 10.2269C19.7496 10.7476 19.5516 11.1546 19.295 11.4479C19.0383 11.7339 18.7376 11.9356 18.393 12.0529C18.0556 12.1703 17.6853 12.2289 17.282 12.2289ZM17.293 10.9529C17.579 10.9529 17.8173 10.8796 18.008 10.7329C18.1986 10.5863 18.3416 10.3149 18.437 9.91894C18.5323 9.52294 18.58 8.95827 18.58 8.22494C18.58 7.65294 18.5506 7.19094 18.492 6.83894C18.4333 6.48694 18.349 6.2156 18.239 6.02494C18.129 5.82694 17.9933 5.69127 17.832 5.61794C17.6706 5.5446 17.4873 5.50794 17.282 5.50794C17.0766 5.50794 16.8933 5.5446 16.732 5.61794C16.5706 5.69127 16.435 5.82327 16.325 6.01394C16.215 6.2046 16.1306 6.47594 16.072 6.82794C16.0206 7.17994 15.995 7.63827 15.995 8.20294C15.995 8.93627 16.0426 9.5046 16.138 9.90794C16.2406 10.3039 16.3873 10.5789 16.578 10.7329C16.776 10.8796 17.0143 10.9529 17.293 10.9529ZM23.8991 12.2289C23.5031 12.2289 23.1328 12.1703 22.7881 12.0529C22.4508 11.9356 22.1501 11.7339 21.8861 11.4479C21.6295 11.1546 21.4278 10.7476 21.2811 10.2269C21.1418 9.70627 21.0721 9.03527 21.0721 8.21394C21.0721 7.40727 21.1418 6.74727 21.2811 6.23394C21.4278 5.71327 21.6295 5.30994 21.8861 5.02394C22.1501 4.7306 22.4508 4.52527 22.7881 4.40794C23.1328 4.2906 23.5031 4.23194 23.8991 4.23194C24.3025 4.23194 24.6728 4.2906 25.0101 4.40794C25.3548 4.52527 25.6555 4.7306 25.9121 5.02394C26.1688 5.30994 26.3668 5.71327 26.5061 6.23394C26.6528 6.7546 26.7261 7.41827 26.7261 8.22494C26.7261 9.03894 26.6528 9.70627 26.5061 10.2269C26.3668 10.7476 26.1688 11.1546 25.9121 11.4479C25.6555 11.7339 25.3548 11.9356 25.0101 12.0529C24.6728 12.1703 24.3025 12.2289 23.8991 12.2289ZM23.9101 10.9529C24.1961 10.9529 24.4345 10.8796 24.6251 10.7329C24.8158 10.5863 24.9588 10.3149 25.0541 9.91894C25.1495 9.52294 25.1971 8.95827 25.1971 8.22494C25.1971 7.65294 25.1678 7.19094 25.1091 6.83894C25.0505 6.48694 24.9661 6.2156 24.8561 6.02494C24.7461 5.82694 24.6105 5.69127 24.4491 5.61794C24.2878 5.5446 24.1045 5.50794 23.8991 5.50794C23.6938 5.50794 23.5105 5.5446 23.3491 5.61794C23.1878 5.69127 23.0521 5.82327 22.9421 6.01394C22.8321 6.2046 22.7478 6.47594 22.6891 6.82794C22.6378 7.17994 22.6121 7.63827 22.6121 8.20294C22.6121 8.93627 22.6598 9.5046 22.7551 9.90794C22.8578 10.3039 23.0045 10.5789 23.1951 10.7329C23.3931 10.8796 23.6315 10.9529 23.9101 10.9529ZM28.9103 12.1849L31.2753 7.69694L33.0023 4.02294H34.3223L32.1443 8.29094L30.2303 12.1849H28.9103ZM29.4163 7.74094C29.123 7.74094 28.837 7.68227 28.5583 7.56494C28.2797 7.4476 28.0523 7.25694 27.8763 6.99294C27.7003 6.7216 27.6123 6.36594 27.6123 5.92594C27.6123 5.4786 27.7003 5.1266 27.8763 4.86994C28.0523 4.60594 28.2797 4.41527 28.5583 4.29794C28.837 4.1806 29.1267 4.12194 29.4273 4.12194C29.7207 4.12194 30.0067 4.1806 30.2853 4.29794C30.564 4.41527 30.7913 4.60594 30.9673 4.86994C31.1433 5.1266 31.2313 5.4786 31.2313 5.92594C31.2313 6.36594 31.1433 6.7216 30.9673 6.99294C30.7913 7.25694 30.564 7.4476 30.2853 7.56494C30.0067 7.68227 29.717 7.74094 29.4163 7.74094ZM29.4273 6.61894C29.618 6.61894 29.772 6.57127 29.8893 6.47594C30.014 6.37327 30.0763 6.18994 30.0763 5.92594C30.0763 5.66927 30.014 5.49327 29.8893 5.39794C29.772 5.3026 29.6143 5.25494 29.4163 5.25494C29.2257 5.25494 29.068 5.3026 28.9433 5.39794C28.826 5.49327 28.7673 5.66927 28.7673 5.92594C28.7673 6.18994 28.8297 6.37327 28.9543 6.47594C29.079 6.57127 29.2367 6.61894 29.4273 6.61894ZM33.9703 12.2069C33.6697 12.2069 33.38 12.1483 33.1013 12.0309C32.8227 11.9136 32.5953 11.7229 32.4193 11.4589C32.2433 11.1876 32.1553 10.8319 32.1553 10.3919C32.1553 9.9446 32.2433 9.5926 32.4193 9.33594C32.5953 9.07194 32.8227 8.88127 33.1013 8.76394C33.38 8.6466 33.6697 8.58794 33.9703 8.58794C34.2637 8.58794 34.5497 8.6466 34.8283 8.76394C35.107 8.88127 35.3343 9.07194 35.5103 9.33594C35.6863 9.5926 35.7743 9.9446 35.7743 10.3919C35.7743 10.8319 35.6863 11.1876 35.5103 11.4589C35.3343 11.7229 35.107 11.9136 34.8283 12.0309C34.5497 12.1483 34.2637 12.2069 33.9703 12.2069ZM33.9703 11.0849C34.161 11.0849 34.315 11.0373 34.4323 10.9419C34.557 10.8393 34.6193 10.6559 34.6193 10.3919C34.6193 10.1353 34.557 9.95927 34.4323 9.86394C34.315 9.7686 34.161 9.72094 33.9703 9.72094C33.7723 9.72094 33.611 9.7686 33.4863 9.86394C33.369 9.95927 33.3103 10.1353 33.3103 10.3919C33.3103 10.6559 33.369 10.8393 33.4863 10.9419C33.611 11.0373 33.7723 11.0849 33.9703 11.0849Z" fill="black"/>
</svg>
