<svg width="16" height="24" viewBox="0 0 16 24" fill="none" xmlns="http://www.w3.org/2000/svg">
<path d="M4.79688 4.47794V3.82093C4.79688 2.41831 5.93393 1.28125 7.33656 1.28125H8.27449C9.67711 1.28125 10.8142 2.4183 10.8142 3.82093V4.47794" stroke="#2174A6" stroke-width="1.3"/>
<path d="M1.53615 8.21748C1.60868 6.38624 3.11431 4.93906 4.94697 4.93906H10.6744C12.5071 4.93906 14.0127 6.38624 14.0852 8.21747L14.5155 19.0826C14.5922 21.0193 13.0429 22.6312 11.1047 22.6312H4.51667C2.57846 22.6312 1.02915 21.0193 1.10585 19.0826L1.53615 8.21748Z" stroke="#2174A6" stroke-width="1.3"/>
<path d="M3.45057 15.3822C3.46724 15.1933 3.62543 15.0484 3.81503 15.0484H11.8849C12.0745 15.0484 12.2327 15.1933 12.2493 15.3822L12.463 17.8038C12.5867 19.2057 11.482 20.4121 10.0746 20.4121H5.62524C4.2179 20.4121 3.11321 19.2057 3.2369 17.8038L3.45057 15.3822Z" stroke="#2174A6" stroke-width="1.3"/>
<mask id="path-4-inside-1_2168_3229" fill="white">
<path d="M10.4435 16.625L11.0847 18.8462H9.80232L10.4435 16.625Z"/>
</mask>
<path d="M10.4435 16.625L12.3651 16.0703L10.4435 9.4139L8.522 16.0703L10.4435 16.625ZM11.0847 18.8462V20.8462H13.7438L13.0063 18.2915L11.0847 18.8462ZM9.80232 18.8462L7.88078 18.2915L7.1433 20.8462H9.80232V18.8462ZM8.522 17.1797L9.16321 19.4009L13.0063 18.2915L12.3651 16.0703L8.522 17.1797ZM11.0847 16.8462H9.80232V20.8462H11.0847V16.8462ZM11.7239 19.4009L12.3651 17.1797L8.522 16.0703L7.88078 18.2915L11.7239 19.4009Z" fill="#2174A6" mask="url(#path-4-inside-1_2168_3229)"/>
<mask id="path-6-inside-2_2168_3229" fill="white">
<path d="M9.70135 7L10.3426 9.22123H9.06013L9.70135 7Z"/>
</mask>
<path d="M9.70135 7L11.6229 6.4453L9.70135 -0.211103L7.77981 6.4453L9.70135 7ZM10.3426 9.22123V11.2212H13.0016L12.2641 8.66653L10.3426 9.22123ZM9.06013 9.22123L7.1386 8.66653L6.40112 11.2212H9.06013V9.22123ZM7.77981 7.5547L8.42102 9.77593L12.2641 8.66653L11.6229 6.4453L7.77981 7.5547ZM10.3426 7.22123H9.06013V11.2212H10.3426V7.22123ZM10.9817 9.77593L11.6229 7.5547L7.77981 6.4453L7.1386 8.66653L10.9817 9.77593Z" fill="#2174A6" mask="url(#path-6-inside-2_2168_3229)"/>
<path d="M3.77344 9.22123L3.78224 8.93788C3.8158 7.85802 4.70089 7 5.78128 7H9.9101C10.9905 7 11.8756 7.85802 11.9091 8.93788L11.9179 9.22123" stroke="#2174A6" stroke-width="1.3" stroke-linecap="round"/>
<line x1="4.27344" y1="16.8594" x2="11.4179" y2="16.8594" stroke="#2174A6" stroke-linecap="round"/>
</svg>
