<svg width="24" height="25" viewBox="0 0 24 25" fill="none" xmlns="http://www.w3.org/2000/svg">
<circle cx="11" cy="11" r="11" fill="#E91313"/>
<path d="M13.9887 8.07637C13.9887 9.48159 12.7509 10.6794 11.1489 10.6794C9.54697 10.6794 8.30922 9.48159 8.30922 8.07637C8.30922 6.67114 9.54697 5.47329 11.1489 5.47329C12.7509 5.47329 13.9887 6.67114 13.9887 8.07637Z" stroke="white" stroke-width="0.946574"/>
<path d="M11.1445 10.6782C10.0717 10.6782 9.09729 10.7462 8.42843 10.8086C7.8486 10.8628 7.34203 11.2055 7.05085 11.7098L5.53623 14.3332C5.23145 14.8611 5.41232 15.5361 5.94022 15.8409V15.8409C6.4573 16.1395 7.11803 15.9727 7.43147 15.4645L8.77807 13.2813L8.30478 16.377" stroke="white" stroke-width="0.946574" stroke-linejoin="round"/>
<path d="M11.1345 10.6782C12.2481 10.6782 13.33 10.7514 14.0653 10.8157C14.657 10.8674 15.178 11.2132 15.475 11.7276L16.9653 14.3088C17.2779 14.8502 17.0924 15.5425 16.5509 15.855V15.855C16.0403 16.1499 15.3888 16.0033 15.0536 15.5181L13.5083 13.2813L14.2182 16.377" stroke="white" stroke-width="0.946574" stroke-linejoin="round"/>
<path d="M16.5 23C18.0354 23 19.3359 22.4672 20.4016 21.4016C21.4672 20.3359 22 19.0354 22 17.5C22 15.9646 21.4672 14.6641 20.4016 13.5984C19.3359 12.5328 18.0354 12 16.5 12C14.9646 12 13.6641 12.5328 12.5984 13.5984C11.5328 14.6641 11 15.9646 11 17.5C11 19.0354 11.5328 20.3359 12.5984 21.4016C13.6641 22.4672 14.9646 23 16.5 23Z" fill="white"/>
<path d="M16.5 20.9375C16.6948 20.9375 16.8581 20.8716 16.9898 20.7398C17.1216 20.6081 17.1875 20.4448 17.1875 20.25C17.1875 20.0552 17.1216 19.8919 16.9898 19.7602C16.8581 19.6284 16.6948 19.5625 16.5 19.5625C16.3052 19.5625 16.1419 19.6284 16.0102 19.7602C15.8784 19.8919 15.8125 20.0552 15.8125 20.25C15.8125 20.4448 15.8784 20.6081 16.0102 20.7398C16.1419 20.8716 16.3052 20.9375 16.5 20.9375ZM15.8125 18.1875H17.1875V14.0625H15.8125V18.1875Z" fill="black"/>
</svg>
