<svg width="24" height="25" viewBox="0 0 24 25" fill="none" xmlns="http://www.w3.org/2000/svg">
<circle cx="11" cy="11.9375" r="11" fill="#119C40"/>
<path d="M13.9887 9.01387C13.9887 10.4191 12.7509 11.6169 11.1489 11.6169C9.54697 11.6169 8.30922 10.4191 8.30922 9.01387C8.30922 7.60864 9.54697 6.41079 11.1489 6.41079C12.7509 6.41079 13.9887 7.60864 13.9887 9.01387Z" stroke="white" stroke-width="0.946574"/>
<path d="M11.1445 11.6157C10.0717 11.6157 9.09729 11.6837 8.42843 11.7461C7.8486 11.8003 7.34203 12.143 7.05085 12.6473L5.53623 15.2707C5.23145 15.7986 5.41232 16.4736 5.94022 16.7784V16.7784C6.4573 17.077 7.11803 16.9102 7.43147 16.402L8.77807 14.2188L8.30478 17.3145" stroke="white" stroke-width="0.946574" stroke-linejoin="round"/>
<path d="M11.1345 11.6157C12.2481 11.6157 13.33 11.6889 14.0653 11.7532C14.657 11.8049 15.178 12.1507 15.475 12.6651L16.9653 15.2463C17.2779 15.7877 17.0924 16.48 16.5509 16.7925V16.7925C16.0403 17.0874 15.3888 16.9408 15.0536 16.4556L13.5083 14.2188L14.2182 17.3145" stroke="white" stroke-width="0.946574" stroke-linejoin="round"/>
<path d="M21.296 18.5C21.296 21.1488 19.1488 23.296 16.5 23.296C13.8512 23.296 11.704 21.1488 11.704 18.5C11.704 15.8512 13.8512 13.704 16.5 13.704C19.1488 13.704 21.296 15.8512 21.296 18.5Z" fill="white" stroke="white" stroke-width="1.408" stroke-linecap="round" stroke-linejoin="round"/>
<path d="M18.5502 17.5312L16.3648 19.9378L14.6953 18.4596" stroke="#119C40" stroke-width="1.408" stroke-linecap="round" stroke-linejoin="round"/>
</svg>
