<svg width="16" height="17" viewBox="0 0 16 17" fill="none" xmlns="http://www.w3.org/2000/svg">
<mask id="path-1-inside-1_1030_2799" fill="white">
<path d="M14.1919 6.10377C14.1919 4.48495 13.5488 2.93243 12.4042 1.78775C11.2595 0.643074 9.70697 1.22218e-07 8.08815 0C6.46933 -1.22218e-07 4.91681 0.643074 3.77213 1.78775C2.62745 2.93243 1.98438 4.48495 1.98438 6.10377L8.08815 6.10377H14.1919Z"/>
</mask>
<path d="M14.1919 6.10377C14.1919 4.48495 13.5488 2.93243 12.4042 1.78775C11.2595 0.643074 9.70697 1.22218e-07 8.08815 0C6.46933 -1.22218e-07 4.91681 0.643074 3.77213 1.78775C2.62745 2.93243 1.98438 4.48495 1.98438 6.10377L8.08815 6.10377H14.1919Z" stroke="#2174A6" stroke-width="2.8" stroke-linejoin="round" mask="url(#path-1-inside-1_1030_2799)"/>
<mask id="path-2-inside-2_1030_2799" fill="white">
<path d="M3.79232 4.65007C3.79232 5.78924 4.24485 6.88175 5.05037 7.68726C5.85588 8.49278 6.94839 8.94531 8.08756 8.94531C9.22674 8.94531 10.3192 8.49278 11.1248 7.68726C11.9303 6.88175 12.3828 5.78924 12.3828 4.65007L8.08757 4.65007L3.79232 4.65007Z"/>
</mask>
<path d="M3.79232 4.65007C3.79232 5.78924 4.24485 6.88175 5.05037 7.68726C5.85588 8.49278 6.94839 8.94531 8.08756 8.94531C9.22674 8.94531 10.3192 8.49278 11.1248 7.68726C11.9303 6.88175 12.3828 5.78924 12.3828 4.65007L8.08757 4.65007L3.79232 4.65007Z" stroke="#2174A6" stroke-width="2.8" mask="url(#path-2-inside-2_1030_2799)"/>
<path d="M8.08594 11.9844V15.3754" stroke="#2174A6" stroke-width="1.4" stroke-linecap="round" stroke-linejoin="round"/>
<path d="M3.41406 10.2266L0.997793 12.6057" stroke="#2174A6" stroke-width="1.4" stroke-linecap="round" stroke-linejoin="round"/>
<path d="M12.7578 10.2266L15.1741 12.6057" stroke="#2174A6" stroke-width="1.4" stroke-linecap="round" stroke-linejoin="round"/>
</svg>
