<svg width="24" height="25" viewBox="0 0 24 25" fill="none" xmlns="http://www.w3.org/2000/svg">
<circle cx="11" cy="11.9375" r="11" fill="#E91313"/>
<path fill-rule="evenodd" clip-rule="evenodd" d="M10.2452 4.90926H12.0637L12.0637 9.91018L10.2452 9.91018L10.2452 4.90926ZM9.33594 4.90926C9.33594 4.40709 9.74303 4 10.2452 4H12.0637C12.5659 4 12.973 4.40709 12.973 4.90926V9.91018L12.973 9.91406H13.8804H14.2013C14.5263 9.91406 14.7897 10.1775 14.7897 10.5024V10.8233V11.278V17.1881C14.7897 17.688 14.3863 18.0937 13.8873 18.0974V18.3163C13.8873 18.6929 13.582 18.9982 13.2054 18.9982C12.8288 18.9982 12.5234 18.6929 12.5234 18.3163V18.0974H9.79357V18.3163C9.79357 18.6929 9.48826 18.9982 9.11163 18.9982C8.735 18.9982 8.42969 18.6929 8.42969 18.3163V18.0974H8.42488C7.92271 18.0974 7.51562 17.6903 7.51562 17.1881V11.278V10.8233V10.5024C7.51562 10.1775 7.77904 9.91406 8.10397 9.91406H8.42488H9.33595L9.33594 9.91018V4.90926ZM8.42488 13.6837L8.42488 17.1881H9.00404C9.03908 17.1826 9.07502 17.1797 9.11163 17.1797C9.14824 17.1797 9.18418 17.1826 9.21923 17.1881H13.0978C13.1328 17.1826 13.1688 17.1797 13.2054 17.1797C13.242 17.1797 13.2779 17.1826 13.313 17.1881H13.8804V13.6837C13.3079 14.3324 12.5075 14.7753 11.6046 14.8872V14.9108C11.6046 15.1618 11.401 15.3654 11.1499 15.3654C10.8989 15.3654 10.6953 15.1618 10.6953 14.9108V14.8865C9.79457 14.7735 8.99629 14.3311 8.42488 13.6837ZM13.8804 11.278V10.8233H8.42488V11.278C8.42488 11.278 8.42488 11.2781 8.42488 11.2781C8.42496 12.6291 9.40722 13.7507 10.6966 13.9678C10.7138 13.7324 10.9102 13.5469 11.1499 13.5469C11.39 13.5469 11.5866 13.7329 11.6034 13.9687C12.8954 13.7538 13.8804 12.6309 13.8804 11.278Z" fill="white"/>
<path d="M16.5 23.9375C18.0354 23.9375 19.3359 23.4047 20.4016 22.3391C21.4672 21.2734 22 19.9729 22 18.4375C22 16.9021 21.4672 15.6016 20.4016 14.5359C19.3359 13.4703 18.0354 12.9375 16.5 12.9375C14.9646 12.9375 13.6641 13.4703 12.5984 14.5359C11.5328 15.6016 11 16.9021 11 18.4375C11 19.9729 11.5328 21.2734 12.5984 22.3391C13.6641 23.4047 14.9646 23.9375 16.5 23.9375Z" fill="white"/>
<path d="M16.5 21.875C16.6948 21.875 16.8581 21.8091 16.9898 21.6773C17.1216 21.5456 17.1875 21.3823 17.1875 21.1875C17.1875 20.9927 17.1216 20.8294 16.9898 20.6977C16.8581 20.5659 16.6948 20.5 16.5 20.5C16.3052 20.5 16.1419 20.5659 16.0102 20.6977C15.8784 20.8294 15.8125 20.9927 15.8125 21.1875C15.8125 21.3823 15.8784 21.5456 16.0102 21.6773C16.1419 21.8091 16.3052 21.875 16.5 21.875ZM15.8125 19.125H17.1875V15H15.8125V19.125Z" fill="black"/>
</svg>
