<svg width="16" height="16" viewBox="0 0 16 16" fill="none" xmlns="http://www.w3.org/2000/svg">
<path d="M9.74911 5.98727C10.3634 6.10335 11.0016 6.03256 11.5692 5.78538C12.1368 5.53821 12.6035 5.1278 12.9001 4.61499C13.1968 4.10219 13.3076 3.51427 13.2162 2.93838C13.1248 2.36249 12.836 1.82928 12.3926 1.41776C11.9492 1.00625 11.3748 0.738349 10.7546 0.653754C10.1344 0.56916 9.50127 0.672379 8.94917 0.948114C8.39707 1.22385 7.95533 1.65742 7.68943 2.18458C7.42353 2.71173 7.34762 3.30441 7.47294 3.87477" stroke="#2174A6" stroke-width="1.21" stroke-linecap="round" stroke-linejoin="round"/>
<path d="M9.7509 5.98696L7.47474 3.875L3.09216 8.52467C2.87324 8.72773 2.75016 9.00323 2.75 9.29055C2.74992 9.43282 2.78002 9.57371 2.83857 9.70518C2.89713 9.83665 2.983 9.95612 3.09128 10.0568C3.19956 10.1574 3.32813 10.2373 3.46965 10.2918C3.61117 10.3463 3.76287 10.3744 3.91608 10.3745C4.22551 10.3746 4.52232 10.2606 4.74124 10.0576L9.7509 5.98696Z" stroke="#2174A6" stroke-width="1.21" stroke-linecap="round" stroke-linejoin="round"/>
<path d="M3.49798 10.5C3.16465 11.1667 2.79798 12.5 3.99798 12.5C6 12.5 7 12 6 15" stroke="#2174A6" stroke-width="1.4" stroke-linecap="round" stroke-linejoin="round"/>
</svg>
