<svg width="43" height="25" viewBox="0 0 43 25" fill="none" xmlns="http://www.w3.org/2000/svg">
<path d="M5.1621 21.1571H2.97314C1.88341 21.1571 1 20.2737 1 19.184V4.28857C1 2.47234 2.47234 1 4.28857 1H25.1011C27.2755 1 29.3683 1.82846 30.9535 3.3168L41.0379 12.7848C41.4352 13.1578 41.6605 13.6784 41.6605 14.2233V19.184C41.6605 20.2737 40.7771 21.1571 39.6874 21.1571H39.0992M13.0061 21.1571H31.4153" stroke="#3197A5" stroke-width="2"/>
<circle cx="9.00585" cy="20.8418" r="3.1621" stroke="#3197A5" stroke-width="2"/>
<circle cx="35.5762" cy="20.8418" r="3.1621" stroke="#3197A5" stroke-width="2"/>
<mask id="path-4-inside-1_2229_7053" fill="white">
<rect x="3.24219" y="4.83594" width="12.4863" height="6.72339" rx="1.31543"/>
</mask>
<rect x="3.24219" y="4.83594" width="12.4863" height="6.72339" rx="1.31543" stroke="#3197A5" stroke-width="4" mask="url(#path-4-inside-1_2229_7053)"/>
<mask id="path-5-inside-2_2229_7053" fill="white">
<rect x="17.3281" y="4.83594" width="8.3242" height="6.72339" rx="1.31543"/>
</mask>
<rect x="17.3281" y="4.83594" width="8.3242" height="6.72339" rx="1.31543" stroke="#3197A5" stroke-width="4" mask="url(#path-5-inside-2_2229_7053)"/>
<path d="M27.9375 6.15137C27.9375 5.97716 28.0787 5.83594 28.2529 5.83594H28.8782C29.6359 5.83594 30.3644 6.12784 30.9125 6.65101L34.4375 10.0157C34.6433 10.2122 34.5042 10.5593 34.2197 10.5593H28.2529C28.0787 10.5593 27.9375 10.4181 27.9375 10.2439V6.15137Z" stroke="#3197A5" stroke-width="2"/>
</svg>
