<svg width="25" height="15" viewBox="0 0 25 15" fill="none" xmlns="http://www.w3.org/2000/svg">
<path d="M2.88525 12.0917H2.13115C1.50643 12.0917 1 11.5853 1 10.9606V2.0999C1 1.47518 1.50643 0.96875 2.13115 0.96875H21.4036C21.9172 0.96875 22.3663 1.31473 22.4973 1.81129L23.9626 7.36405C23.9874 7.45824 24 7.55524 24 7.65265V10.9606C24 11.5853 23.4936 12.0917 22.8689 12.0917H21.1721M7.5041 12.0917H16.6475" stroke="white" stroke-width="1.14654"/>
<path d="M1 3.70312H22.8689" stroke="white" stroke-width="1.14654"/>
<path d="M5.14062 7.84375L5.14062 3.69621" stroke="white" stroke-width="1.14654"/>
<path d="M9.67969 7.84375L9.67969 3.69621" stroke="white" stroke-width="1.14654"/>
<path d="M14.3906 7.84375L14.3906 3.69621" stroke="white" stroke-width="1.14654"/>
<path d="M18.9062 7.84375L18.9062 3.69621" stroke="white" stroke-width="1.14654"/>
<path d="M1 7.84375H23.8115" stroke="white" stroke-width="1.14654"/>
<path d="M22.3984 7.84375L22.3984 8.78637C22.3984 8.99461 22.5672 9.16342 22.7755 9.16342H23.8124" stroke="white" stroke-width="1.14654" stroke-linejoin="round"/>
<circle cx="5.14613" cy="11.9039" r="1.87755" stroke="white" stroke-width="1.14654"/>
<circle cx="18.9118" cy="11.9039" r="1.87755" stroke="white" stroke-width="1.14654"/>
</svg>
