<svg width="24" height="24" viewBox="0 0 24 24" fill="none" xmlns="http://www.w3.org/2000/svg">
<path d="M11.1 19H12.85V17.75C13.6833 17.6 14.4 17.275 15 16.775C15.6 16.275 15.9 15.5333 15.9 14.55C15.9 13.85 15.7 13.2083 15.3 12.625C14.9 12.0417 14.1 11.5333 12.9 11.1C11.9 10.7667 11.2083 10.475 10.825 10.225C10.4417 9.975 10.25 9.63333 10.25 9.2C10.25 8.76667 10.4042 8.425 10.7125 8.175C11.0208 7.925 11.4667 7.8 12.05 7.8C12.5833 7.8 13 7.92917 13.3 8.1875C13.6 8.44583 13.8167 8.76667 13.95 9.15L15.55 8.5C15.3667 7.91667 15.0292 7.40833 14.5375 6.975C14.0458 6.54167 13.5 6.3 12.9 6.25V5H11.15V6.25C10.3167 6.43333 9.66667 6.8 9.2 7.35C8.73333 7.9 8.5 8.51667 8.5 9.2C8.5 9.98333 8.72917 10.6167 9.1875 11.1C9.64583 11.5833 10.3667 12 11.35 12.35C12.4 12.7333 13.1292 13.075 13.5375 13.375C13.9458 13.675 14.15 14.0667 14.15 14.55C14.15 15.1 13.9542 15.5042 13.5625 15.7625C13.1708 16.0208 12.7 16.15 12.15 16.15C11.6 16.15 11.1125 15.9792 10.6875 15.6375C10.2625 15.2958 9.95 14.7833 9.75 14.1L8.1 14.75C8.33333 15.55 8.69583 16.1958 9.1875 16.6875C9.67917 17.1792 10.3167 17.5167 11.1 17.7V19Z" fill="black"/>
<path fill-rule="evenodd" clip-rule="evenodd" d="M21.8097 13.9516L19.8477 13.5635C19.9474 13.0594 20 12.5368 20 12C20 11.4632 19.9474 10.9406 19.8477 10.4365L21.8097 10.0484C21.9345 10.6796 22 11.3321 22 12C22 12.6679 21.9345 13.3204 21.8097 13.9516ZM20.3157 6.44384L18.6537 7.55648C18.0691 6.68321 17.3168 5.93092 16.4435 5.34628L17.5562 3.68435C18.6467 4.41443 19.5856 5.35333 20.3157 6.44384ZM13.9516 2.19034L13.5635 4.15232C13.0594 4.0526 12.5368 4 12 4C11.4632 4 10.9406 4.0526 10.4365 4.15232L10.0484 2.19034C10.6796 2.06547 11.3321 2 12 2C12.6679 2 13.3204 2.06547 13.9516 2.19034ZM6.44384 3.68435L7.55648 5.34628C6.68321 5.93093 5.93092 6.68321 5.34628 7.55648L3.68435 6.44384C4.41443 5.35333 5.35333 4.41443 6.44384 3.68435ZM2.19034 10.0484C2.06547 10.6796 2 11.3321 2 12C2 12.6679 2.06547 13.3204 2.19034 13.9516L4.15232 13.5635C4.0526 13.0594 4 12.5368 4 12C4 11.4632 4.0526 10.9406 4.15232 10.4365L2.19034 10.0484ZM3.68435 17.5562L5.34628 16.4435C5.93093 17.3168 6.68321 18.0691 7.55648 18.6537L6.44384 20.3157C5.35333 19.5856 4.41443 18.6467 3.68435 17.5562ZM10.0484 21.8097L10.4365 19.8477C10.9406 19.9474 11.4632 20 12 20C12.5368 20 13.0594 19.9474 13.5635 19.8477L13.9516 21.8097C13.3204 21.9345 12.6679 22 12 22C11.3321 22 10.6796 21.9345 10.0484 21.8097ZM17.5562 20.3157L16.4435 18.6537C17.3168 18.0691 18.0691 17.3168 18.6537 16.4435L20.3157 17.5562C19.5856 18.6467 18.6467 19.5856 17.5562 20.3157Z" fill="black"/>
</svg>
