<svg width="18" height="20" viewBox="0 0 18 20" fill="none" xmlns="http://www.w3.org/2000/svg">
<path fill-rule="evenodd" clip-rule="evenodd" d="M9.20726 0.101864C8.89847 -0.0339546 8.54686 -0.0339545 8.23808 0.101864L4.42244 1.78015C3.80943 2.04978 3.53439 2.76794 3.81047 3.37808L4.10883 4.03744C4.15328 4.13565 4.20989 4.22587 4.27643 4.30661C4.23927 4.39569 4.21875 4.49345 4.21875 4.596V5.64915C4.21875 5.86431 4.30908 6.05837 4.45389 6.19548C4.44881 6.30604 4.46909 6.41807 4.51576 6.522C4.57769 7.88498 4.998 9.26839 5.65282 10.3484C5.77284 10.5464 5.90289 10.7373 6.0423 10.9177C6.0273 10.9627 6.01918 11.0107 6.01918 11.0607V12.177C6.00752 12.1837 5.99606 12.191 5.98484 12.1989L5.56359 12.4937C4.89868 12.9592 4.14649 13.2853 3.35227 13.4525L2.74748 13.5798C1.14623 13.9169 0 15.3296 0 16.9659V19.038C0 19.2872 0.202076 19.4893 0.451349 19.4893C0.700623 19.4893 0.902699 19.2872 0.902699 19.038V16.9659C0.902699 15.7565 1.74991 14.7123 2.93344 14.4632L3.53824 14.3358C3.91093 14.2574 4.27557 14.1485 4.62863 14.0107L5.78575 15.6827C6.12425 16.1718 6.80036 16.2837 7.27842 15.9298L7.3205 15.8986L7.58464 16.1628L7.22519 18.8227C7.19181 19.0697 7.365 19.2971 7.61203 19.3304C7.85906 19.3638 8.08637 19.1906 8.11976 18.9436L8.39504 16.9065C8.62572 17.0208 8.89511 17.0304 9.13229 16.9353L9.40368 18.9436C9.43706 19.1906 9.66438 19.3638 9.91141 19.3304C10.1584 19.2971 10.3316 19.0697 10.2982 18.8227L9.94693 16.223L10.1683 16.0016C10.6352 16.2648 11.2371 16.1351 11.5502 15.6827L12.7208 13.9912C13.0407 14.1114 13.3695 14.2079 13.7047 14.2797L14.5277 14.4561C15.707 14.7088 16.5495 15.751 16.5495 16.957V19.038C16.5495 19.2872 16.7516 19.4893 17.0008 19.4893C17.2501 19.4893 17.4522 19.2872 17.4522 19.038V16.957C17.4522 15.3253 16.3123 13.9153 14.7169 13.5734L13.8939 13.3971C13.2708 13.2636 12.6729 13.032 12.1225 12.7109L11.428 12.3058C11.4291 12.2928 11.4297 12.2796 11.4297 12.2663V10.9123C11.4297 10.8703 11.4239 10.8296 11.4132 10.791C11.552 10.6156 11.6819 10.4321 11.8017 10.2437C12.4779 9.18024 12.916 7.83571 12.8348 6.582C12.9194 6.43855 12.9437 6.28094 12.9203 6.13147C13.0296 6.00089 13.0953 5.83269 13.0953 5.64915V4.596C13.0953 4.49925 13.077 4.40676 13.0437 4.3218C13.0991 4.25687 13.1479 4.18549 13.1891 4.10843L13.5525 3.42824C13.8828 2.81005 13.6171 2.04151 12.9755 1.75932L9.20726 0.101864ZM10.527 11.9384V11.6861C9.959 12.1331 9.31618 12.4182 8.64518 12.4182C8.01111 12.4182 7.43099 12.1831 6.92188 11.801V12.0599L8.66797 13.9387L10.527 11.9384ZM8.66797 14.901L8.05402 15.3555L8.7959 16.0974L9.42893 15.4644L8.66797 14.901ZM11.9171 7.33267C11.471 7.63038 10.9547 7.91492 10.4611 8.04314C10.1659 8.11985 9.97339 8.16607 9.73283 8.18826C9.51679 8.20818 9.26494 8.20815 8.86081 8.2081H8.86076L8.79914 8.2081C8.35289 8.2081 8.09268 8.20487 7.86907 8.18128C7.65448 8.15864 7.47815 8.11752 7.22444 8.05835L7.22439 8.05834L7.22439 8.05833L7.17103 8.0459C6.61503 7.91649 6.01702 7.61563 5.50301 7.30552C5.65349 8.24055 5.97985 9.14665 6.42472 9.88039C7.05873 10.9261 7.86064 11.5155 8.64518 11.5155C9.43006 11.5155 10.3458 10.8511 11.04 9.75938C11.5099 9.02029 11.8293 8.15728 11.9171 7.33267ZM8.60152 0.928165C8.67872 0.89421 8.76662 0.89421 8.84382 0.928165L12.6121 2.58562C12.7725 2.65617 12.8389 2.8483 12.7563 3.00285L12.3929 3.68304C12.3406 3.78098 12.2386 3.84214 12.1275 3.84214H5.20539C5.08721 3.84214 4.97997 3.77296 4.93125 3.66529L4.63289 3.00593C4.56387 2.8534 4.63263 2.67386 4.78589 2.60645L8.60152 0.928165ZM5.12145 5.4987V4.74645H12.1926V5.4987H5.12145ZM5.76021 6.4027C6.27674 6.7314 6.87194 7.04946 7.37567 7.1667L7.4009 7.17257C7.68296 7.23824 7.80628 7.26695 7.96377 7.28356C8.13158 7.30126 8.34269 7.3054 8.79914 7.3054H8.80657H8.80661C9.26358 7.3054 9.47614 7.3054 9.64993 7.28937C9.81092 7.27453 9.94132 7.24552 10.2341 7.16945C10.687 7.0518 11.2163 6.73269 11.6733 6.4027H5.76021ZM6.57612 13.0139L5.48297 13.6589L6.52803 15.169C6.57639 15.2389 6.67298 15.2549 6.74127 15.2043L7.84935 14.3839L6.57612 13.0139ZM11.853 13.6589L10.7598 13.0139L9.48659 14.3839L10.5947 15.2043C10.663 15.2549 10.7596 15.2389 10.8079 15.169L11.853 13.6589Z" fill="#2174A6"/>
</svg>
