<svg width="41" height="40" viewBox="0 0 41 40" fill="none" xmlns="http://www.w3.org/2000/svg">
<path d="M14.9956 6.40793C15.9009 6.25705 18.6419 7.16236 19.8993 7.63387C21.4081 6.65354 23.5457 6.40811 24.4259 6.40793C24.9603 6.09341 27.8903 6.97881 28.5753 8.10484C30.7442 11.6884 30.2727 23.1934 30.1784 24.0421C30.0841 24.8908 30.0841 25.5509 28.5753 27.5313C27.7806 28.5743 27.5379 28.9515 27.0664 30.9262C25.7839 34.0948 23.4829 33.0065 22.7285 31.9636C22.4141 31.1777 21.4082 29.606 19.8993 29.606C18.0132 29.606 18.2019 30.2661 16.976 31.9636C14.807 34.3211 12.8266 32.2465 12.638 30.9262C12.5437 29.606 11.7893 28.5686 11.0348 27.5313C10.4689 26.7769 10.0918 26.5883 9.52596 24.2307C8.77154 12.6314 10.469 10.3681 11.0348 8.10484C11.695 6.97882 13.8639 6.59654 14.9956 6.40793Z" stroke="#2174A6" stroke-width="1.94978" stroke-linecap="round" stroke-linejoin="round"/>
<path d="M11.9763 7.27344C11.4733 7.61922 9.99594 8.89545 9.61873 9.72532C8.8643 10.9513 7.16684 12.2715 6.22381 12.8373C5.28078 13.4031 3.11178 14.6291 3.20611 17.1753C3.27598 19.0613 4.0548 20.0044 4.33771 20.4759C4.62062 20.9474 6.22378 23.305 6.31808 24.4366C6.41238 25.5683 6.48598 26.9828 7.35542 26.9828C8.01554 26.9828 8.39275 26.8885 9.43009 24.1537" stroke="#2174A6" stroke-width="1.94978" stroke-linecap="round" stroke-linejoin="round"/>
<path d="M9.80455 12.7344C8.92439 13.6774 7.16406 16.6385 7.16406 20.9388" stroke="#2174A6" stroke-width="1.94978" stroke-linecap="round" stroke-linejoin="round"/>
<path d="M27.7269 7.27344C28.2298 7.61922 29.7072 8.89545 30.0844 9.72532C30.8388 10.9513 32.5363 12.2715 33.4793 12.8373C34.4223 13.4031 36.5913 14.6291 36.497 17.1753C36.4271 19.0613 35.6483 20.0044 35.3654 20.4759C35.0825 20.9474 33.4793 23.305 33.385 24.4366C33.2907 25.5683 33.2171 26.9828 32.3477 26.9828C31.6876 26.9828 31.3104 26.8885 30.273 24.1537" stroke="#2174A6" stroke-width="1.94978" stroke-linecap="round" stroke-linejoin="round"/>
<path d="M29.8986 12.7344C30.7787 13.6774 32.5391 16.6385 32.5391 20.9388" stroke="#2174A6" stroke-width="1.94978" stroke-linecap="round" stroke-linejoin="round"/>
<path d="M23.396 32.5721C22.961 33.0833 22.4218 33.4957 21.8146 33.7818C21.2074 34.0679 20.5461 34.221 19.875 34.231C19.2039 34.2409 18.5383 34.1075 17.9229 33.8396C17.3075 33.5717 16.7563 33.1754 16.3063 32.6774" stroke="#2174A6" stroke-width="1.94978"/>
<path d="M17.8385 22.3497C17.2129 22.6339 16.847 23.0476 16.3929 23.5642C16.0414 24.3201 16.8017 27.0097 20.0801 27.0015C22.4907 27.001 23.7477 24.4924 23.2505 23.5542C22.8005 23.039 22.4379 22.6259 21.8145 22.3437C21.1911 22.0614 20.5139 21.916 19.8282 21.917C19.1425 21.9181 18.4642 22.0656 17.8385 22.3497Z" fill="#2174A6"/>
<path d="M19.7969 26.7812V29.6103" stroke="#2174A6" stroke-width="1.94978" stroke-linecap="round" stroke-linejoin="round"/>
<path fill-rule="evenodd" clip-rule="evenodd" d="M14.9062 26.9648C14.9062 27.3294 14.6106 27.6249 14.2461 27.6249C13.8815 27.6249 13.5859 27.3294 13.5859 26.9648C13.5859 26.6002 13.8815 26.3047 14.2461 26.3047C14.6106 26.3047 14.9062 26.6002 14.9062 26.9648ZM17.1565 27.9068C17.1565 28.2714 16.861 28.5669 16.4964 28.5669C16.1318 28.5669 15.8363 28.2714 15.8363 27.9068C15.8363 27.5422 16.1318 27.2467 16.4964 27.2467C16.861 27.2467 17.1565 27.5422 17.1565 27.9068ZM14.8142 30.4509C15.1788 30.4509 15.4744 30.1554 15.4744 29.7908C15.4744 29.4262 15.1788 29.1307 14.8142 29.1307C14.4497 29.1307 14.1541 29.4262 14.1541 29.7908C14.1541 30.1554 14.4497 30.4509 14.8142 30.4509Z" fill="#2174A6"/>
<path fill-rule="evenodd" clip-rule="evenodd" d="M24.711 26.9648C24.711 27.3294 25.0066 27.6249 25.3711 27.6249C25.7357 27.6249 26.0312 27.3294 26.0312 26.9648C26.0312 26.6002 25.7357 26.3047 25.3711 26.3047C25.0066 26.3047 24.711 26.6002 24.711 26.9648ZM22.4607 27.9068C22.4607 28.2714 22.7562 28.5669 23.1208 28.5669C23.4854 28.5669 23.7809 28.2714 23.7809 27.9068C23.7809 27.5422 23.4854 27.2467 23.1208 27.2467C22.7562 27.2467 22.4607 27.5422 22.4607 27.9068ZM24.8029 30.4509C24.4384 30.4509 24.1428 30.1554 24.1428 29.7908C24.1428 29.4262 24.4384 29.1307 24.8029 29.1307C25.1675 29.1307 25.4631 29.4262 25.4631 29.7908C25.4631 30.1554 25.1675 30.4509 24.8029 30.4509Z" fill="#2174A6"/>
<path fill-rule="evenodd" clip-rule="evenodd" d="M14.236 18.5735C15.1214 18.5735 15.8391 17.8557 15.8391 16.9703C15.8391 16.0849 15.1214 15.3672 14.236 15.3672C13.3506 15.3672 12.6328 16.0849 12.6328 16.9703C12.6328 17.8557 13.3506 18.5735 14.236 18.5735ZM25.3679 18.5735C26.2533 18.5735 26.9711 17.8557 26.9711 16.9703C26.9711 16.0849 26.2533 15.3672 25.3679 15.3672C24.4825 15.3672 23.7648 16.0849 23.7648 16.9703C23.7648 17.8557 24.4825 18.5735 25.3679 18.5735Z" fill="#2174A6"/>
</svg>
