<svg width="41" height="40" viewBox="0 0 41 40" fill="none" xmlns="http://www.w3.org/2000/svg">
<path d="M14.875 15.271C15.3684 14.9294 17.0385 14.269 19.7713 14.3601C22.5042 14.4512 24.0984 15.0054 24.5538 15.271" stroke="#2174A6" stroke-width="2" stroke-linecap="round" stroke-linejoin="round"/>
<path d="M10.6689 6.04042C13.675 8.40889 16.3623 12.6017 17.2732 14.4615C17.9184 14.2713 19.5483 14.1344 22.1695 14.4709C22.8528 11.9658 26.8382 7.48757 28.5462 6.27232C29.6825 5.46797 30.9424 5.24355 31.2814 7.17393C32.8755 16.2841 30.3681 18.7937 28.3185 20.274C28.4323 23.1207 28.4347 24.5951 27.4098 26.5309C26.0434 28.3528 25.1325 29.6054 25.0186 31.9966C24.9047 34.3878 23.0805 35.4185 19.8922 35.6463C17.0455 35.5324 14.1525 34.6214 14.4288 31.9966C14.6565 29.8331 12.6046 27.6755 11.9237 26.5309C10.7907 24.1516 10.8955 22.9055 11.1235 20.1952L11.1269 20.1543C6.4583 18.2185 7.70828 8.88713 8.04988 7.17911C8.39149 5.47108 9.30215 5.24852 10.6689 6.04042Z" stroke="#2174A6" stroke-width="2" stroke-linecap="round" stroke-linejoin="round"/>
<path d="M19.4884 26.4754C19.5451 26.6889 19.5496 26.9134 19.5016 27.1324C19.4536 27.3514 19.3543 27.5593 19.211 27.741C19.0676 27.9226 18.8839 28.0733 18.6733 28.1821C18.4626 28.2908 18.2304 28.3549 17.9937 28.3695C17.7569 28.3841 17.5216 28.3489 17.3051 28.2665C17.0885 28.1841 16.8961 28.0565 16.7421 27.8932C16.5881 27.7299 16.4763 27.535 16.4149 27.3228C16.3536 27.1105 16.3442 26.8863 16.3875 26.6666" stroke="#2174A6" stroke-width="2" stroke-linecap="round" stroke-linejoin="round"/>
<path d="M19.8319 26.4754C19.7752 26.6889 19.7707 26.9134 19.8187 27.1324C19.8667 27.3514 19.966 27.5593 20.1093 27.741C20.2527 27.9226 20.4364 28.0733 20.647 28.1821C20.8577 28.2908 21.0899 28.3549 21.3267 28.3695C21.5634 28.3841 21.7987 28.3489 22.0153 28.2665C22.2318 28.1841 22.4242 28.0565 22.5782 27.8932C22.7322 27.7299 22.844 27.535 22.9054 27.3228C22.9667 27.1105 22.9761 26.8863 22.9328 26.6666" stroke="#2174A6" stroke-width="2" stroke-linecap="round" stroke-linejoin="round"/>
<rect x="13.625" y="21.3047" width="1.59416" height="2.27737" rx="0.79708" fill="#2174A6" stroke="#2174A6" stroke-width="2"/>
<rect x="24.3281" y="21.3047" width="1.59416" height="2.27737" rx="0.79708" fill="#2174A6" stroke="#2174A6" stroke-width="2"/>
<path d="M20.0323 26.4973C19.8503 26.7461 19.4789 26.7461 19.297 26.4973L18.3207 25.1623C18.1006 24.8614 18.3155 24.438 18.6883 24.438L20.6409 24.438C21.0137 24.438 21.2286 24.8614 21.0086 25.1623L20.0323 26.4973Z" fill="#2174A6" stroke="#2174A6" stroke-width="2"/>
</svg>
