<svg width="145" height="60" viewBox="0 0 145 60" fill="none" xmlns="http://www.w3.org/2000/svg">
<path d="M0.671875 4.66686C0.671875 2.62445 2.32758 0.96875 4.36999 0.96875H37.0366C39.079 0.96875 40.7347 2.62445 40.7347 4.66686V37.3335C40.7347 39.3759 39.079 41.0316 37.0366 41.0316H4.36999C2.32758 41.0316 0.671875 39.3759 0.671875 37.3335V4.66686Z" fill="#2174A6"/>
<path d="M0 4.66686C0 2.62445 1.6557 0.96875 3.69811 0.96875H29.8931C29.8931 0.96875 16.9497 7.59453 21.4182 19.7675C25.8868 31.9404 35.4402 41.0316 35.4402 41.0316H3.69811C1.6557 41.0316 0 39.3759 0 37.3335V4.66686Z" fill="#F36F1C"/>
<mask id="mask0_1820_36404" style="mask-type:alpha" maskUnits="userSpaceOnUse" x="0" y="0" width="41" height="42">
<path d="M0.539062 4.66686C0.539062 2.62445 2.19476 0.96875 4.23717 0.96875H36.9038C38.9462 0.96875 40.6019 2.62445 40.6019 4.66686V37.3335C40.6019 39.3759 38.9462 41.0316 36.9038 41.0316H4.23717C2.19476 41.0316 0.539062 39.3759 0.539062 37.3335V4.66686Z" fill="#2174A6"/>
</mask>
<g mask="url(#mask0_1820_36404)">
<path d="M11.8618 41.0316C6.39749 7.75359 19.4263 0.968127 25.8838 0.96875H31.276C9.46682 8.8844 32.5676 32.6313 42.5244 41.0316H30.5056C11.8618 14.9191 19.0435 5.6835 25.9774 2.2159C9.95145 6.62278 16.3809 29.629 22.0308 41.0316C22.0308 41.0316 11.9872 41.7952 11.8618 41.0316Z" fill="white"/>
</g>
<path d="M135.374 38.043C133.955 38.043 132.733 37.7868 131.708 37.2744C130.684 36.7488 129.895 36.0327 129.343 35.1262C128.792 34.2196 128.516 33.1685 128.516 31.9728C128.516 30.764 128.726 29.6604 129.146 28.6618C129.567 27.6501 130.158 26.7764 130.92 26.0406C131.682 25.2917 132.589 24.7136 133.64 24.3063C134.704 23.899 135.867 23.6953 137.128 23.6953C138.547 23.6953 139.769 23.9581 140.794 24.4836C141.819 24.9961 142.607 25.7056 143.159 26.6121C143.711 27.5187 143.987 28.5698 143.987 29.7655C143.987 30.9743 143.776 32.0845 143.356 33.0962C142.936 34.0947 142.344 34.9685 141.582 35.7174C140.82 36.4532 139.907 37.0247 138.843 37.432C137.792 37.8393 136.635 38.043 135.374 38.043ZM135.709 34.8108C136.392 34.8108 136.997 34.686 137.522 34.4364C138.061 34.1867 138.514 33.8385 138.882 33.3918C139.263 32.932 139.552 32.413 139.749 31.8349C139.946 31.2567 140.045 30.6458 140.045 30.002C140.045 29.3845 139.914 28.8458 139.651 28.3859C139.401 27.926 139.033 27.5713 138.547 27.3216C138.074 27.0589 137.489 26.9275 136.793 26.9275C136.123 26.9275 135.519 27.0523 134.98 27.3019C134.441 27.5516 133.981 27.9063 133.6 28.3662C133.232 28.8129 132.95 29.3253 132.753 29.9034C132.556 30.4816 132.457 31.0925 132.457 31.7363C132.457 32.3407 132.582 32.8794 132.832 33.3524C133.095 33.8123 133.462 34.1736 133.935 34.4364C134.422 34.686 135.013 34.8108 135.709 34.8108Z" fill="white"/>
<path d="M109.414 37.7802L112.173 23.9844H115.346L119.15 33.3853H117.475L124.846 23.9844H128.176L125.457 37.7802H121.85L123.486 29.4239L124.136 29.4042L118.677 36.4203H116.962L113.986 29.3845L114.676 29.4436L113.001 37.7802H109.414Z" fill="white"/>
<path d="M102.06 38.043C101.271 38.043 100.516 37.9773 99.7931 37.8459C99.0704 37.7277 98.4135 37.5568 97.8222 37.3335C97.231 37.097 96.7251 36.8408 96.3047 36.5649L97.8419 33.648C98.3149 33.9371 98.8011 34.1867 99.3004 34.3969C99.8128 34.594 100.332 34.7451 100.857 34.8502C101.383 34.9553 101.908 35.0079 102.434 35.0079C102.933 35.0079 103.36 34.9619 103.715 34.8699C104.07 34.7648 104.339 34.6203 104.523 34.4364C104.707 34.2524 104.799 34.0356 104.799 33.786C104.799 33.5101 104.674 33.2933 104.425 33.1356C104.188 32.9648 103.873 32.8203 103.479 32.702C103.084 32.5838 102.644 32.4655 102.158 32.3473C101.685 32.2159 101.205 32.0648 100.719 31.894C100.246 31.71 99.8128 31.4867 99.4186 31.2239C99.0244 30.948 98.7025 30.5998 98.4529 30.1794C98.2164 29.7589 98.0981 29.2399 98.0981 28.6224C98.0981 27.6238 98.3675 26.7567 98.9062 26.0209C99.4449 25.2851 100.207 24.7136 101.192 24.3063C102.191 23.899 103.367 23.6953 104.72 23.6953C105.706 23.6953 106.625 23.8004 107.479 24.0106C108.333 24.2077 109.069 24.4968 109.687 24.8778L108.268 27.7749C107.729 27.4333 107.131 27.1771 106.474 27.0063C105.83 26.8224 105.167 26.7304 104.484 26.7304C103.958 26.7304 103.505 26.7895 103.124 26.9078C102.756 27.026 102.473 27.1903 102.276 27.4005C102.092 27.5976 102 27.8209 102 28.0706C102 28.3333 102.119 28.5501 102.355 28.7209C102.592 28.8917 102.907 29.0363 103.301 29.1545C103.708 29.2728 104.149 29.3976 104.622 29.529C105.108 29.6472 105.587 29.7918 106.06 29.9626C106.533 30.1202 106.973 30.337 107.381 30.6129C107.788 30.8757 108.11 31.2108 108.346 31.6181C108.583 32.0254 108.701 32.5312 108.701 33.1356C108.701 34.121 108.432 34.9816 107.893 35.7174C107.354 36.4532 106.586 37.0247 105.587 37.432C104.589 37.8393 103.413 38.043 102.06 38.043Z" fill="white"/>
<path d="M90.5469 37.7802L93.306 23.9844H97.2083L94.4491 37.7802H90.5469Z" fill="white"/>
<path d="M76.2109 37.7802L78.9701 23.9844H84.8629C86.6367 23.9844 88.0031 24.372 88.9622 25.1472C89.9345 25.9224 90.4207 26.9998 90.4207 28.3793C90.4207 29.5356 90.1382 30.5473 89.5732 31.4144C89.0214 32.2685 88.233 32.932 87.2082 33.405C86.1834 33.878 84.9746 34.1145 83.5819 34.1145H79.1081L81.1774 32.4393L80.1132 37.7802H76.2109ZM84.8629 37.7802L82.0446 32.7546H86.0848L88.9425 37.7802H84.8629ZM81.0789 32.8926L79.719 31.0991H83.7592C84.6264 31.0991 85.2965 30.8954 85.7695 30.4881C86.2425 30.0808 86.479 29.5027 86.479 28.7538C86.479 28.1757 86.2885 27.7487 85.9074 27.4728C85.5264 27.1968 84.9943 27.0589 84.3111 27.0589H80.5468L82.6359 25.2063L81.0789 32.8926Z" fill="white"/>
<path d="M67.8276 38.0561C66.448 38.0561 65.2918 37.7934 64.3589 37.2678C63.4392 36.7291 62.7888 35.9802 62.4078 35.021C62.0268 34.0488 61.9611 32.9188 62.2107 31.6312L63.748 23.9844H67.6502L66.1327 31.5721C66.0276 32.1239 65.9947 32.6035 66.0341 33.0108C66.0736 33.4181 66.1852 33.7597 66.3692 34.0356C66.5663 34.3115 66.8225 34.5152 67.1378 34.6466C67.4663 34.7648 67.8539 34.824 68.3006 34.824C68.8393 34.824 69.3057 34.7189 69.6999 34.5086C70.1072 34.2853 70.4422 33.9371 70.705 33.4641C70.9809 32.978 71.1912 32.3473 71.3357 31.5721L72.8532 23.9844H76.6964L75.1394 31.8086C74.7321 33.8583 73.9175 35.4152 72.6956 36.4795C71.4736 37.5306 69.851 38.0561 67.8276 38.0561Z" fill="white"/>
<path d="M51.9875 37.7802L54.1357 27.0786H49.8984L50.5291 23.9844H62.8862L62.2556 27.0786H58.038L55.8898 37.7802H51.9875Z" fill="white"/>
<path d="M135.523 18.3818L138.283 4.58594H142.185L139.426 18.3818H135.523Z" fill="white"/>
<path d="M121.188 18.3818L123.947 4.58594H129.839C131.613 4.58594 132.98 4.97354 133.939 5.74873C134.911 6.52393 135.397 7.60132 135.397 8.9809C135.397 10.1371 135.115 11.1488 134.55 12.016C133.998 12.87 133.21 13.5335 132.185 14.0065C131.16 14.4795 129.951 14.716 128.558 14.716H124.085L126.154 13.0408L125.09 18.3818H121.188ZM129.839 18.3818L127.021 13.3562H131.061L133.919 18.3818H129.839ZM126.055 13.4941L124.696 11.7007H128.736C129.603 11.7007 130.273 11.497 130.746 11.0897C131.219 10.6824 131.456 10.1043 131.456 9.35536C131.456 8.77725 131.265 8.35023 130.884 8.07432C130.503 7.7984 129.971 7.66044 129.288 7.66044H125.523L127.612 5.80786L126.055 13.4941Z" fill="white"/>
<path d="M113.559 9.9269H119.964L119.393 12.8437H112.987L113.559 9.9269ZM112.751 15.3664H119.984L119.353 18.3818H108.297L111.056 4.58594H121.856L121.245 7.60131H114.288L112.751 15.3664Z" fill="white"/>
<path d="M100.93 18.6914C99.5368 18.6914 98.3149 18.4352 97.2638 17.9228C96.2258 17.4104 95.4178 16.7009 94.8396 15.7943C94.2747 14.8746 93.9922 13.8169 93.9922 12.6213C93.9922 11.4256 94.2024 10.3219 94.6229 9.31025C95.0433 8.29856 95.6411 7.42482 96.4163 6.68904C97.1915 5.94013 98.1112 5.36202 99.1755 4.95471C100.253 4.5474 101.449 4.34375 102.762 4.34375C104.142 4.34375 105.331 4.56054 106.33 4.99413C107.341 5.42771 108.156 6.05838 108.773 6.88613L105.975 9.09346C105.515 8.52849 105.016 8.13432 104.477 7.91096C103.938 7.6876 103.308 7.57592 102.585 7.57592C101.876 7.57592 101.232 7.69417 100.654 7.93067C100.089 8.16717 99.6025 8.50221 99.1952 8.93579C98.7879 9.36938 98.4725 9.8818 98.2492 10.473C98.039 11.0512 97.9339 11.6818 97.9339 12.365C97.9339 12.9826 98.0718 13.5278 98.3477 14.0008C98.6237 14.4607 99.0244 14.822 99.5499 15.0848C100.075 15.3344 100.713 15.4593 101.462 15.4593C102.066 15.4593 102.644 15.3607 103.196 15.1636C103.761 14.9665 104.326 14.6381 104.891 14.1782L106.369 17.0359C105.66 17.5615 104.838 17.9688 103.905 18.2578C102.973 18.5469 101.981 18.6914 100.93 18.6914ZM103.038 16.425L104.083 11.222H107.532L106.369 17.0359L103.038 16.425Z" fill="white"/>
<path d="M86.0936 18.6914C84.7009 18.6914 83.4789 18.4352 82.4278 17.9228C81.3899 17.4104 80.5818 16.7009 80.0037 15.7943C79.4387 14.8746 79.1562 13.8169 79.1562 12.6213C79.1562 11.4256 79.3665 10.3219 79.7869 9.31025C80.2074 8.29856 80.8052 7.42482 81.5804 6.68904C82.3556 5.94013 83.2753 5.36202 84.3395 4.95471C85.4169 4.5474 86.6126 4.34375 87.9265 4.34375C89.3061 4.34375 90.4951 4.56054 91.4937 4.99413C92.5054 5.42771 93.32 6.05838 93.9375 6.88613L91.1389 9.09346C90.6791 8.52849 90.1798 8.13432 89.6411 7.91096C89.1024 7.6876 88.4717 7.57592 87.7491 7.57592C87.0396 7.57592 86.3958 7.69417 85.8177 7.93067C85.2527 8.16717 84.7666 8.50221 84.3593 8.93579C83.9519 9.36938 83.6366 9.8818 83.4133 10.473C83.203 11.0512 83.0979 11.6818 83.0979 12.365C83.0979 12.9826 83.2359 13.5278 83.5118 14.0008C83.7877 14.4607 84.1884 14.822 84.714 15.0848C85.2396 15.3344 85.8768 15.4593 86.6257 15.4593C87.2301 15.4593 87.8082 15.3607 88.36 15.1636C88.925 14.9665 89.49 14.6381 90.055 14.1782L91.5331 17.0359C90.8236 17.5615 90.0024 17.9688 89.0695 18.2578C88.1367 18.5469 87.1447 18.6914 86.0936 18.6914ZM88.2024 16.425L89.2469 11.222H92.6959L91.5331 17.0359L88.2024 16.425Z" fill="white"/>
<path d="M70.101 18.6577C68.7215 18.6577 67.5652 18.3949 66.6324 17.8694C65.7126 17.3307 65.0623 16.5818 64.6812 15.6226C64.3002 14.6503 64.2345 13.5204 64.4842 12.2328L66.0214 4.58594H69.9237L68.4061 12.1737C68.301 12.7255 68.2682 13.2051 68.3076 13.6124C68.347 14.0197 68.4587 14.3613 68.6426 14.6372C68.8397 14.9131 69.0959 15.1168 69.4112 15.2482C69.7397 15.3664 70.1273 15.4255 70.574 15.4255C71.1127 15.4255 71.5792 15.3204 71.9733 15.1102C72.3806 14.8868 72.7157 14.5387 72.9785 14.0657C73.2544 13.5795 73.4646 12.9488 73.6091 12.1737L75.1267 4.58594H78.9698L77.4128 12.4102C77.0055 14.4598 76.1909 16.0168 74.969 17.081C73.7471 18.1321 72.1244 18.6577 70.101 18.6577Z" fill="white"/>
<path d="M49.0391 18.3818L51.7982 4.58594H57.691C59.4648 4.58594 60.8312 4.97354 61.7904 5.74873C62.7626 6.52393 63.2488 7.60132 63.2488 8.9809C63.2488 10.1371 62.9663 11.1488 62.4013 12.016C61.8495 12.87 61.0612 13.5335 60.0363 14.0065C59.0115 14.4795 57.8027 14.716 56.41 14.716H51.9362L54.0056 13.0408L52.9413 18.3818H49.0391ZM57.691 18.3818L54.8727 13.3562H58.9129L61.7707 18.3818H57.691ZM53.907 13.4941L52.5471 11.7007H56.5874C57.4545 11.7007 58.1246 11.497 58.5976 11.0897C59.0706 10.6824 59.3071 10.1043 59.3071 9.35536C59.3071 8.77725 59.1166 8.35023 58.7356 8.07432C58.3545 7.7984 57.8224 7.66044 57.1392 7.66044H53.3749L55.464 5.80786L53.907 13.4941Z" fill="white"/>
<path d="M2.352 54.1232L1.512 56.0312H0L3.696 47.6432H5.208L8.904 56.0312H7.392L6.552 54.1232H2.352ZM5.976 52.8152L4.452 49.3592L2.928 52.8152H5.976ZM30.3382 51.9512H31.7542V54.8192C30.9622 55.6912 29.8302 56.1273 28.3582 56.1273C27.1182 56.1273 26.0782 55.7192 25.2382 54.9032C24.4062 54.0872 23.9902 53.0552 23.9902 51.8072C23.9902 50.5592 24.4142 49.5192 25.2622 48.6872C26.1182 47.8552 27.1502 47.4392 28.3582 47.4392C29.5662 47.4392 30.5702 47.7912 31.3702 48.4952L30.6142 49.5752C30.2862 49.2952 29.9542 49.1032 29.6182 48.9992C29.2902 48.8872 28.9062 48.8312 28.4662 48.8312C27.6182 48.8312 26.9062 49.1072 26.3302 49.6592C25.7542 50.2032 25.4662 50.9232 25.4662 51.8192C25.4662 52.7072 25.7462 53.4232 26.3062 53.9672C26.8662 54.5032 27.5422 54.7712 28.3342 54.7712C29.1342 54.7712 29.8022 54.5992 30.3382 54.2552V51.9512ZM53.9643 47.6432V48.9753H49.4883V51.1952H53.5083V52.4552H49.4883V54.6992H54.1083V56.0312H48.0723V47.6432H53.9643ZM76.6718 47.6432H78.0878V56.0312H76.5518L71.7998 49.9112V56.0312H70.3838V47.6432H71.7998L76.6718 53.9072V47.6432ZM98.7031 54.7472C99.1911 54.7472 99.6111 54.6672 99.9631 54.5072C100.315 54.3392 100.683 54.0752 101.067 53.7152L101.979 54.6512C101.091 55.6352 100.011 56.1273 98.7391 56.1273C97.4751 56.1273 96.4231 55.7192 95.5831 54.9032C94.7511 54.0872 94.3351 53.0552 94.3351 51.8072C94.3351 50.5592 94.7591 49.5192 95.6071 48.6872C96.4631 47.8552 97.5391 47.4392 98.8351 47.4392C100.139 47.4392 101.227 47.9192 102.099 48.8792L101.199 49.8633C100.799 49.4792 100.419 49.2112 100.059 49.0592C99.7071 48.9072 99.2911 48.8312 98.8111 48.8312C97.9631 48.8312 97.2511 49.1072 96.6751 49.6592C96.0991 50.2032 95.8111 50.9032 95.8111 51.7592C95.8111 52.6072 96.0951 53.3192 96.6631 53.8952C97.2391 54.4632 97.9191 54.7472 98.7031 54.7472ZM118.171 47.6432H119.587V56.0312H118.171V47.6432ZM137.557 54.1232L136.717 56.0312H135.205L138.901 47.6432H140.413L144.109 56.0312H142.597L141.757 54.1232H137.557ZM141.181 52.8152L139.657 49.3592L138.133 52.8152H141.181Z" fill="#F36F1C"/>
</svg>
