<svg width="17" height="17" viewBox="0 0 17 17" fill="none" xmlns="http://www.w3.org/2000/svg">
<path d="M3.38853 11.0583C2.00164 11.0583 0.898438 9.95511 0.898438 8.56823C0.898438 7.18134 2.00164 6.07812 3.38853 6.07812C4.77542 6.07812 5.87863 7.18134 5.87863 8.56823C5.87863 9.92359 4.77542 11.0583 3.38853 11.0583ZM3.38853 6.99222C2.53748 6.99222 1.84404 7.68566 1.84404 8.5367C1.84404 9.38775 2.53748 10.0812 3.38853 10.0812C4.23957 10.0812 4.93302 9.38775 4.93302 8.5367C4.93302 7.71718 4.23957 6.99222 3.38853 6.99222Z" fill="black" stroke="black" stroke-width="0.5"/>
<path d="M13.5057 5.98018C12.1188 5.98018 11.0156 4.87698 11.0156 3.49009C11.0156 2.1032 12.1188 1 13.5057 1C14.8926 1 15.9958 2.1032 15.9958 3.49009C15.9958 4.87698 14.8611 5.98018 13.5057 5.98018ZM13.5057 1.9456C12.6547 1.9456 11.9612 2.63905 11.9612 3.49009C11.9612 4.34114 12.6547 5.03458 13.5057 5.03458C14.3568 5.03458 15.0502 4.34114 15.0502 3.49009C15.0502 2.63905 14.3568 1.9456 13.5057 1.9456Z" fill="black" stroke="black" stroke-width="0.5"/>
<path d="M13.5057 16.0974C12.1188 16.0974 11.0156 14.9942 11.0156 13.6073C11.0156 12.2204 12.1188 11.1172 13.5057 11.1172C14.8926 11.1172 15.9958 12.2204 15.9958 13.6073C15.9958 14.9942 14.8611 16.0974 13.5057 16.0974ZM13.5057 12.0628C12.6547 12.0628 11.9612 12.7562 11.9612 13.6073C11.9612 14.4583 12.6547 15.1518 13.5057 15.1518C14.3568 15.1518 15.0502 14.4583 15.0502 13.6073C15.0502 12.7562 14.3568 12.0628 13.5057 12.0628Z" fill="black" stroke="black" stroke-width="0.5"/>
<path d="M11.4619 13.1607L4.96875 9.91408L5.41004 9L11.9347 12.2466L11.4619 13.1607Z" fill="black" stroke="black" stroke-width="0.5"/>
<path d="M5.41004 8.09008L4.96875 7.20751L11.4619 3.96094L11.9347 4.8435L5.41004 8.09008Z" fill="black" stroke="black" stroke-width="0.5"/>
</svg>
