<svg width="55" height="21" viewBox="0 0 55 21" fill="none" xmlns="http://www.w3.org/2000/svg">
<path d="M9.49219 0.820312L9.49219 20.1914" stroke="#2174A6" stroke-width="1.21069" stroke-linecap="round"/>
<path d="M1.10156 15.3516L17.8774 5.666" stroke="#2174A6" stroke-width="1.21069" stroke-linecap="round"/>
<path d="M1.10156 5.66406L17.8774 15.3496" stroke="#2174A6" stroke-width="1.21069" stroke-linecap="round"/>
<path d="M6.66259 2.43799L9.48755 4.85937L12.3125 2.43799" stroke="#2174A6" stroke-width="1.21069" stroke-linecap="round"/>
<path d="M12.314 18.5776L9.48902 16.1562L6.66406 18.5776" stroke="#2174A6" stroke-width="1.21069" stroke-linecap="round"/>
<path d="M1.08587 8.91664L4.59534 7.68086L3.91083 4.02368" stroke="#2174A6" stroke-width="1.21069" stroke-linecap="round"/>
<path d="M17.8907 12.099L14.3812 13.3348L15.0657 16.9919" stroke="#2174A6" stroke-width="1.21069" stroke-linecap="round"/>
<path d="M3.90766 16.9865L4.59216 13.3293L1.0827 12.0935" stroke="#2174A6" stroke-width="1.21069" stroke-linecap="round"/>
<path d="M15.0689 4.02134L14.3844 7.67852L17.8939 8.91431" stroke="#2174A6" stroke-width="1.21069" stroke-linecap="round"/>
<path fill-rule="evenodd" clip-rule="evenodd" d="M53.9039 18.7172H28.8354C28.5203 18.7172 28.2656 18.4625 28.2656 18.1474V2.19474C28.2656 1.88024 28.5203 1.625 28.8354 1.625H53.9039C54.2189 1.625 54.4736 1.88024 54.4736 2.19474V18.1474C54.4736 18.4625 54.2189 18.7172 53.9039 18.7172ZM53.3341 2.76448H29.4051V17.5777H53.3341V2.76448ZM39.6604 6.75265C39.7823 6.75265 39.8883 6.79936 39.9812 6.86432L44.4086 9.64008C44.6285 9.71814 44.788 9.92381 44.788 10.1711C44.788 10.3562 44.694 10.5135 44.5573 10.6172L40.0142 13.4551C39.9162 13.5348 39.796 13.5895 39.6604 13.5895C39.3453 13.5895 39.0907 13.3348 39.0907 13.0198V7.32238C39.0907 7.00789 39.3453 6.75265 39.6604 6.75265ZM36.242 19.8566H46.4973C46.8123 19.8566 47.067 20.1113 47.067 20.4264C47.067 20.7414 46.8123 20.9961 46.4973 20.9961H36.242C35.9269 20.9961 35.6722 20.7414 35.6722 20.4264C35.6722 20.1113 35.9269 19.8566 36.242 19.8566Z" fill="#2174A6"/>
</svg>
