<svg width="70" height="70" viewBox="0 0 40 40" fill="none" xmlns="http://www.w3.org/2000/svg">
<path fill-rule="evenodd" clip-rule="evenodd" d="M27.0209 21.6029C26.5817 21.7626 26.0962 21.536 25.9365 21.0969L24.0788 15.9881C22.3813 16.9244 21.2314 18.7316 21.2314 20.8073C21.2314 23.8449 23.6938 26.3073 26.7314 26.3073C29.7689 26.3073 32.2314 23.8449 32.2314 20.8073C32.2314 17.7698 29.7689 15.3073 26.7314 15.3073C26.368 15.3073 26.0129 15.3426 25.6692 15.4098L27.527 20.5185C27.6867 20.9577 27.4601 21.4432 27.0209 21.6029ZM25.0854 13.8042C25.614 13.6805 26.165 13.615 26.7314 13.615C30.7036 13.615 33.9237 16.8351 33.9237 20.8073C33.9237 24.7795 30.7036 27.9996 26.7314 27.9996C22.9018 27.9996 19.7713 25.0066 19.5514 21.2322L14.4504 21.2322C14.2305 25.0066 11.1 27.9996 7.27043 27.9996C3.29823 27.9996 0.078125 24.7795 0.078125 20.8073C0.078125 16.8351 3.29823 13.615 7.27043 13.615C10.8102 13.615 13.7527 16.1721 14.3514 19.5399L15.6686 19.5399L13.55 14.4554C13.3829 14.4371 13.3913 14.3446 13.4456 14.2047L12.4935 11.9197L10.2278 11.9197C9.76045 11.9197 9.38161 11.5409 9.38161 11.0735C9.38161 10.6062 9.76045 10.2274 10.2278 10.2274L13.6131 10.2274L13.6204 10.2243L13.6217 10.2274H14.4585C14.9259 10.2274 15.3047 10.6062 15.3047 11.0735C15.3047 11.5409 14.9259 11.9197 14.4585 11.9197H14.3268L14.6796 12.7665L22.9073 12.7665L21.0621 7.69231L17.8471 7.69231C17.3798 7.69231 17.001 7.31347 17.001 6.84615C17.001 6.37884 17.3798 6 17.8471 6L21.6548 6C22.0106 6 22.3284 6.2226 22.45 6.55699L25.0854 13.8042ZM23.3482 14.4588H15.3848L17.5019 19.5399L19.6257 19.5399C19.6339 19.5399 19.6421 19.54 19.6503 19.5403C20.0421 17.336 21.438 15.4789 23.3482 14.4588ZM12.6237 19.5399C12.0514 17.1133 9.8718 15.3073 7.27043 15.3073C4.23287 15.3073 1.77043 17.7698 1.77043 20.8073C1.77043 23.8449 4.23287 26.3073 7.27043 26.3073C10.165 26.3073 12.5374 24.0712 12.7543 21.2322L6.75528 21.2322C6.33716 21.2322 5.9982 20.8534 5.9982 20.3861C5.9982 19.9187 6.33715 19.5399 6.75528 19.5399L12.6237 19.5399Z" fill="#2174A6"/>
</svg>

