<svg width="24" height="25" viewBox="0 0 24 25" fill="none" xmlns="http://www.w3.org/2000/svg">
<circle cx="11" cy="11.9375" r="11" fill="#119C40"/>
<path fill-rule="evenodd" clip-rule="evenodd" d="M15.1567 13.418C14.976 13.4837 14.7763 13.3905 14.7106 13.2099L13.9475 11.1112C13.2515 11.497 12.7803 12.2391 12.7803 13.0913C12.7803 14.3407 13.7932 15.3536 15.0427 15.3536C16.2921 15.3536 17.305 14.3407 17.305 13.0913C17.305 11.8418 16.2921 10.8289 15.0427 10.8289C14.8916 10.8289 14.744 10.8437 14.6012 10.872L15.3648 12.972C15.4305 13.1526 15.3373 13.3523 15.1567 13.418ZM14.3611 10.2117C14.5799 10.1601 14.8081 10.1328 15.0427 10.1328C16.6766 10.1328 18.0011 11.4573 18.0011 13.0913C18.0011 14.7252 16.6766 16.0497 15.0427 16.0497C13.4659 16.0497 12.1772 14.8162 12.089 13.2615L9.99021 13.2615C9.90202 14.8162 8.61335 16.0497 7.03658 16.0497C5.40267 16.0497 4.07812 14.7252 4.07812 13.0913C4.07812 11.4573 5.40267 10.1328 7.03658 10.1328C8.49101 10.1328 9.7003 11.1823 9.94843 12.5654L10.4916 12.5654L9.61979 10.4729C9.55192 10.4653 9.55512 10.4275 9.57712 10.3705L9.1849 9.42919L8.24934 9.42919C8.05711 9.42919 7.90128 9.27337 7.90128 9.08114C7.90128 8.88892 8.05711 8.73309 8.24934 8.73309L9.9896 8.73309C10.1818 8.73309 10.3377 8.88892 10.3377 9.08114C10.3377 9.27337 10.1818 9.42919 9.9896 9.42919H9.93901L10.0845 9.77825L13.4628 9.77825L12.7056 7.69611L11.3832 7.69611C11.1909 7.69611 11.0351 7.54028 11.0351 7.34805C11.0351 7.15583 11.1909 7 11.3832 7H12.9494C13.0958 7 13.2265 7.09156 13.2765 7.22911L14.3611 10.2117ZM13.6618 10.4742C13.6582 10.4743 13.6547 10.4744 13.6511 10.4744H10.3745L11.2457 12.5654L12.1166 12.5654C12.1213 12.5654 12.1261 12.5655 12.1308 12.5657C12.2937 11.6568 12.8718 10.8919 13.6618 10.4742ZM9.23748 12.5654C9.00041 11.5695 8.10498 10.8289 7.03658 10.8289C5.78712 10.8289 4.77423 11.8418 4.77423 13.0913C4.77423 14.3407 5.78712 15.3536 7.03658 15.3536C8.22878 15.3536 9.20559 14.4314 9.29261 13.2615L6.8225 13.2615C6.65051 13.2615 6.51108 13.1056 6.51108 12.9134C6.51108 12.7212 6.65051 12.5654 6.8225 12.5654L9.23748 12.5654Z" fill="white"/>
<path d="M21.296 18.4688C21.296 21.1348 19.1348 23.296 16.4688 23.296C13.8027 23.296 11.6415 21.1348 11.6415 18.4688C11.6415 15.8027 13.8027 13.6415 16.4688 13.6415C19.1348 13.6415 21.296 15.8027 21.296 18.4688Z" fill="white" stroke="white" stroke-width="1.408" stroke-linecap="round" stroke-linejoin="round"/>
<path d="M18.533 17.5L16.3353 19.9203L14.6562 18.4336" stroke="#119C40" stroke-width="1.408" stroke-linecap="round" stroke-linejoin="round"/>
</svg>
