<svg width="40" height="40" viewBox="0 0 40 40" fill="none" xmlns="http://www.w3.org/2000/svg">
<path fill-rule="evenodd" clip-rule="evenodd" d="M27.0209 21.6029C26.5817 21.7626 26.0962 21.536 25.9365 21.0969L24.079 15.9887C22.3817 16.9251 21.232 18.7321 21.232 20.8077C21.232 23.8453 23.6944 26.3077 26.732 26.3077C29.7695 26.3077 32.232 23.8453 32.232 20.8077C32.232 17.7701 29.7695 15.3077 26.732 15.3077C26.3685 15.3077 26.0132 15.343 25.6694 15.4103L27.527 20.5185C27.6867 20.9577 27.4601 21.4432 27.0209 21.6029ZM25.0856 13.8047C25.6143 13.6809 26.1655 13.6154 26.732 13.6154C30.7042 13.6154 33.9243 16.8355 33.9243 20.8077C33.9243 24.7799 30.7042 28 26.732 28C22.9019 28 19.771 25.0062 19.5519 21.231L14.4505 21.231C14.2314 25.0062 11.1005 28 7.27043 28C3.29823 28 0.078125 24.7799 0.078125 20.8077C0.078125 16.8355 3.29823 13.6154 7.27043 13.6154C10.8096 13.6154 13.7518 16.1717 14.3511 19.5387L15.6648 19.5387L13.548 14.4584C13.3812 14.4401 13.3895 14.3477 13.4436 14.208L12.4917 11.9233L10.232 11.9233C9.76465 11.9233 9.38582 11.5445 9.38582 11.0772C9.38582 10.6098 9.76465 10.231 10.232 10.231L13.6113 10.231L13.6186 10.228L13.6199 10.231H14.4627C14.9301 10.231 15.3089 10.6098 15.3089 11.0772C15.3089 11.5445 14.9301 11.9233 14.4627 11.9233H14.325L14.6776 12.7695L22.9084 12.7695L21.0621 7.69231L17.8471 7.69231C17.3798 7.69231 17.001 7.31347 17.001 6.84615C17.001 6.37884 17.3798 6 17.8471 6H21.6548C22.0106 6 22.3284 6.2226 22.45 6.55699L25.0856 13.8047ZM23.3439 14.4618H15.3827L17.4981 19.5387L19.6287 19.5387C19.6362 19.5387 19.6437 19.5388 19.6512 19.5391C20.043 17.3373 21.4366 15.4822 23.3439 14.4618ZM12.6233 19.5387C12.0504 17.1129 9.87124 15.3077 7.27043 15.3077C4.23287 15.3077 1.77043 17.7701 1.77043 20.8077C1.77043 23.8453 4.23287 26.3077 7.27043 26.3077C10.1656 26.3077 12.5382 24.0708 12.7544 21.231L6.75829 21.231C6.34016 21.231 6.0012 20.8522 6.0012 20.3849C6.0012 19.9175 6.34016 19.5387 6.75829 19.5387L12.6233 19.5387Z" fill="#2174A6"/>
</svg>
