<svg width="24" height="24" viewBox="0 0 24 24" fill="none" xmlns="http://www.w3.org/2000/svg">
<path fill-rule="evenodd" clip-rule="evenodd" d="M11.9231 7.15385C10.776 7.15385 9.84615 6.22398 9.84615 5.07692C9.84615 3.92987 10.776 3 11.9231 3C13.0701 3 14 3.92987 14 5.07692C14 6.22398 13.0701 7.15385 11.9231 7.15385ZM11.9231 14.0757C10.776 14.0757 9.84615 13.1459 9.84615 11.9988C9.84615 10.8517 10.776 9.92187 11.9231 9.92187C13.0701 9.92187 14 10.8517 14 11.9988C14 13.1459 13.0701 14.0757 11.9231 14.0757ZM9.84615 18.9207C9.84615 20.0677 10.776 20.9976 11.9231 20.9976C13.0701 20.9976 14 20.0677 14 18.9207C14 17.7736 13.0701 16.8437 11.9231 16.8437C10.776 16.8437 9.84615 17.7736 9.84615 18.9207Z" fill="#F36F1C"/>
</svg>
